<svg width="48" height="50" viewBox="0 0 48 50" fill="none" xmlns="http://www.w3.org/2000/svg">
<g id="coin-falling">
<path id="Vector" d="M24 50C37.2548 50 48 39.1644 48 25.7979C48 12.4315 37.2548 1.59581 24 1.59581C10.7452 1.59581 0 12.4315 0 25.7979C0 39.1644 10.7452 50 24 50Z" fill="#DF9E29"/>
<path id="Vector_2" d="M24.0301 47.8046C37.2683 47.8046 48 37.1031 48 23.9023C48 10.7014 37.2683 0 24.0301 0C10.7919 0 0.0601807 10.7014 0.0601807 23.9023C0.0601807 37.1031 10.7919 47.8046 24.0301 47.8046Z" fill="#F5CC1A"/>
<path id="Vector_3" d="M24.0301 44.4575C35.5533 44.4575 44.8947 35.1165 44.8947 23.5938C44.8947 12.071 35.5533 2.73002 24.0301 2.73002C12.5069 2.73002 3.16553 12.071 3.16553 23.5938C3.16553 35.1165 12.5069 44.4575 24.0301 44.4575Z" fill="#E79020"/>
<path id="Vector_4" d="M24.0301 43.1218C34.9393 43.1218 43.783 34.3788 43.783 23.5937C43.783 12.8087 34.9393 4.06567 24.0301 4.06567C13.1208 4.06567 4.2771 12.8087 4.2771 23.5937C4.2771 34.3788 13.1208 43.1218 24.0301 43.1218Z" fill="#FBD30D"/>
<path id="Vector_5" d="M22.1797 23.0576C19.6988 24.3991 17.693 25.0711 16.1623 25.0738C14.6315 25.0764 13.0799 24.0189 11.5075 21.9012C10.6629 20.7606 10.4051 19.3277 10.7339 17.6023C11.0628 15.877 12.2993 14.2166 14.4434 12.6214L12.6223 10.1705L13.5661 9.46859L15.5661 12.1653C17.0309 11.3277 18.5352 10.9047 20.0792 10.8963C21.6231 10.8878 22.6033 10.7292 23.0198 10.4204C23.4368 10.1095 23.8342 9.57805 24.2122 8.82615L24.5772 16.7045C23.2702 15.5777 21.9749 14.4408 20.6912 13.2939C19.3415 12.596 17.9192 12.6039 16.4244 13.3177L21.6674 20.395C24.4523 18.3222 26.9617 17.3601 29.1955 17.5087C31.4294 17.6573 33.2045 18.6183 34.521 20.3918C35.9931 22.3763 36.5442 24.765 36.1742 27.5579C35.8041 30.3508 34.4318 32.6311 32.057 34.3988L34.8107 38.1123L33.7973 38.8666L31.1124 35.0984C29.0749 36.6143 26.9018 37.2613 24.593 37.0392C22.2842 36.8171 20.2367 35.5015 18.4505 33.0925C18.0905 32.606 17.9683 32.1037 18.0839 31.5855C18.2053 31.0622 18.5155 30.6023 18.9548 30.2943C19.341 29.994 19.8243 29.8471 20.3119 29.8818C20.8018 29.9167 21.2372 30.1904 21.6183 30.7027C21.9995 31.2151 22.1826 31.7489 22.1678 32.3041C22.1536 32.8588 21.8263 33.3741 21.186 33.8499C22.664 35.2046 24.0612 35.7932 25.3777 35.6155C26.6941 35.4378 28.2003 34.7168 29.8963 33.4526L22.1797 23.0576ZM15.247 13.7103C14.119 14.55 13.3761 15.6009 13.0182 16.8631C12.6603 18.1253 12.8361 19.2357 13.5455 20.1943C14.256 21.1514 15.2726 21.6987 16.5954 21.8361C17.9182 21.9736 19.1911 21.5879 20.4141 20.6789L15.247 13.7103ZM23.4355 22.7752L31.0174 32.9989C32.8648 31.3708 33.9377 29.7028 34.2359 27.9949C34.5342 26.287 34.2159 24.8036 33.2811 23.5446C32.2597 22.1698 30.8081 21.3661 28.9263 21.1334C27.0446 20.9008 25.2143 21.448 23.4355 22.7752Z" fill="#B06A0C"/>
<path id="Vector_6" d="M22.1797 22.6459C19.6989 23.9864 17.6931 24.6584 16.1623 24.6621C14.6316 24.6658 13.08 23.6083 11.5075 21.4895C10.663 20.349 10.4049 18.9163 10.7332 17.1915C11.0615 15.4666 12.2983 13.806 14.4434 12.2097L12.6223 9.75889L13.5661 9.05695L15.5653 11.7536C17.0306 10.9171 18.535 10.4941 20.0784 10.4846C21.6218 10.4751 22.6018 10.3165 23.0182 10.0087C23.4352 9.69781 23.8327 9.1664 24.2106 8.4145L24.5764 16.2936C23.2695 15.1658 21.9742 14.0289 20.6904 12.8831C19.3407 12.1851 17.9182 12.1933 16.4228 12.9077L21.6675 19.9794C24.4513 17.9066 26.9607 16.9448 29.1956 17.0939C31.4305 17.243 33.2056 18.2038 34.521 19.9762C35.9932 21.9607 36.544 24.3493 36.1734 27.1423C35.8029 29.9352 34.4305 32.2158 32.0562 33.984L34.8084 37.6951L33.795 38.4494L31.1124 34.6859C29.075 36.2024 26.9018 36.8494 24.5931 36.6267C22.2843 36.4041 20.2368 35.0888 18.4505 32.6808C18.0895 32.1938 17.9673 31.6915 18.0839 31.1739C18.2047 30.6501 18.515 30.1898 18.9549 29.8818C19.3414 29.5822 19.8244 29.4354 20.312 29.4694C20.8018 29.5043 21.2373 29.7782 21.6184 30.2911C21.9995 30.804 22.1827 31.3375 22.1679 31.8917C22.1531 32.4458 21.8258 32.9613 21.1861 33.4383C22.664 34.7925 24.0612 35.3807 25.3777 35.203C26.6941 35.0254 28.2001 34.3047 29.8955 33.0409L22.1797 22.6459ZM15.2463 13.2947C14.1188 14.1355 13.3758 15.1864 13.0174 16.4475C12.659 17.7086 12.8351 18.819 13.5455 19.7787C14.255 20.7358 15.2716 21.283 16.5954 21.4205C17.9193 21.558 19.1922 21.1723 20.4141 20.2633L15.2463 13.2947ZM23.4347 22.3604L31.0174 32.5833C32.8649 30.9557 33.9375 29.288 34.2352 27.5801C34.5329 25.8722 34.2146 24.3885 33.2803 23.129C32.2595 21.7542 30.8079 20.9507 28.9256 20.7186C27.0433 20.4865 25.213 21.0337 23.4347 22.3604Z" fill="#E79020"/>
</g>
</svg>
