<svg width="779" height="632" viewBox="0 0 779 632" fill="none" xmlns="http://www.w3.org/2000/svg">
<g id="corporation">
<path id="Vector" d="M769.311 275.176H8.94788V626.966H769.311V275.176Z" fill="#F2F2F2"/>
<path id="Vector_2" d="M549.555 492.064C550.757 489.816 551.825 487.519 552.937 485.227L553.135 484.825C553.323 484.352 553.559 483.751 553.87 483.005C567.558 449.426 581.342 416.85 601.106 386.298C619.034 358.531 639.474 332.449 660.096 306.662C668.496 296.149 676.961 285.689 685.362 275.176H548.1V494.71C548.594 493.83 549.104 492.955 549.555 492.064Z" fill="#E6E6E6"/>
<path id="Vector_3" d="M779 251.745H0V276.759H779V251.745Z" fill="#CCCCCC"/>
<path id="Vector_4" d="M652.275 197.66H119.274V577.496H652.275V197.66Z" fill="#F2F2F2"/>
<path id="Vector_5" opacity="0.6" d="M622.818 245.52C621.911 246.443 621.025 247.382 620.134 248.321C592.759 287.895 563.774 326.492 530.092 360.876C523.796 367.316 517.258 373.472 510.602 379.504C504.231 387.854 497.607 396.012 490.64 403.89C467.156 430.433 441.676 455.501 416.926 480.859C407.264 490.739 397.205 500.179 387.082 509.576V577.491H664.857V210.132C651.503 222.674 635.689 232.414 622.818 245.52Z" fill="#E6E6E6"/>
<path id="Vector_6" opacity="0.6" d="M250.277 240.824C249.37 241.747 248.484 242.691 247.593 243.625C220.218 283.204 191.206 321.801 157.551 356.186C151.255 362.626 144.717 368.781 138.061 374.813C131.69 383.164 125.066 391.321 118.093 399.199C94.6153 425.738 69.1351 450.811 44.3849 476.163C34.7232 486.048 24.6643 495.483 14.5355 504.88V572.8H292.316V205.436C278.961 217.978 263.148 227.713 250.277 240.824Z" fill="#E6E6E6"/>
<path id="Vector_7" d="M440.195 430.669H384.844V500.543H440.195V430.669Z" fill="#ABC7F4"/>
<path id="Vector_8" d="M440.195 506.688H384.844V576.562H440.195V506.688Z" fill="#ABC7F4"/>
<path id="Vector_9" d="M376.454 506.688H321.103V576.562H376.454V506.688Z" fill="#ABC7F4"/>
<path id="Vector_10" d="M444.381 506.688V500.071H316.068V506.688H444.381Z" fill="#C69C6D"/>
<path id="Vector_11" d="M321.108 430.669H315.515V576.568H321.108V430.669Z" fill="#C69C6D"/>
<path id="Vector_12" d="M379.25 430.669H374.779V576.568H379.25V430.669Z" fill="#C69C6D"/>
<path id="Vector_13" d="M85.1683 313.934H36.9025V385.112H85.1683V313.934Z" fill="#ABC7F4"/>
<path id="Vector_14" d="M36.9025 341.883L72.2323 316.166H85.1683V325.113L36.9025 373.649V341.883Z" fill="#9CBDEF"/>
<path id="Vector_15" d="M48.7489 381.479L85.1683 344.91V367.176L68.1744 381.479H48.7489Z" fill="#9CBDEF"/>
<path id="Vector_16" d="M224.942 247.924H176.676V319.102H224.942V247.924Z" fill="#ABC7F4"/>
<path id="Vector_17" d="M176.67 275.873L212.006 250.162H224.942V259.103L176.67 307.644V275.873Z" fill="#9CBDEF"/>
<path id="Vector_18" d="M188.522 315.469L224.942 278.9V301.167L207.948 315.469H188.522Z" fill="#9CBDEF"/>
<path id="Vector_19" d="M224.942 439.519H176.676V510.697H224.942V439.519Z" fill="#ABC7F4"/>
<path id="Vector_20" d="M176.67 467.469L212.006 441.752H224.942V450.698L176.67 499.239V467.469Z" fill="#9CBDEF"/>
<path id="Vector_21" d="M188.522 507.064L224.942 470.495V492.762L207.948 507.064H188.522Z" fill="#9CBDEF"/>
<path id="Vector_22" d="M599.533 439.519H551.267V510.697H599.533V439.519Z" fill="#ABC7F4"/>
<path id="Vector_23" d="M551.267 467.469L586.597 441.752H599.533V450.698L551.267 499.239V467.469Z" fill="#9CBDEF"/>
<path id="Vector_24" d="M563.114 507.064L599.533 470.495V492.762L582.544 507.064H563.114Z" fill="#9CBDEF"/>
<path id="Vector_25" d="M742.661 455.635H694.395V526.813H742.661V455.635Z" fill="#ABC7F4"/>
<path id="Vector_26" d="M694.395 483.585L729.725 457.873H742.661V466.814L694.395 515.356V483.585Z" fill="#9CBDEF"/>
<path id="Vector_27" d="M706.242 523.18L742.661 486.612V508.878L725.667 523.18H706.242Z" fill="#9CBDEF"/>
<path id="Vector_28" d="M742.661 313.37H694.395V384.548H742.661V313.37Z" fill="#ABC7F4"/>
<path id="Vector_29" d="M694.395 341.32L729.725 315.608H742.661V324.555L694.395 373.091V341.32Z" fill="#9CBDEF"/>
<path id="Vector_30" d="M706.242 380.915L742.661 344.352V366.618L725.667 380.915H706.242Z" fill="#9CBDEF"/>
<path id="Vector_31" d="M85.1683 455.635H36.9025V526.813H85.1683V455.635Z" fill="#ABC7F4"/>
<path id="Vector_32" d="M36.9025 483.585L72.2323 457.873H85.1683V466.814L36.9025 515.356V483.585Z" fill="#9CBDEF"/>
<path id="Vector_33" d="M48.7489 523.18L85.1683 486.612V508.878L68.1744 523.18H48.7489Z" fill="#9CBDEF"/>
<path id="Vector_34" d="M366.39 247.924H318.124V319.102H366.39V247.924Z" fill="#ABC7F4"/>
<path id="Vector_35" d="M318.124 275.873L353.454 250.162H366.39V259.103L318.124 307.644V275.873Z" fill="#9CBDEF"/>
<path id="Vector_36" d="M329.97 315.469L366.39 278.9V301.167L349.401 315.469H329.97Z" fill="#9CBDEF"/>
<path id="Vector_37" d="M458.638 247.924H410.372V319.102H458.638V247.924Z" fill="#ABC7F4"/>
<path id="Vector_38" d="M410.372 275.873L445.702 250.162H458.643V259.103L410.372 307.644V275.873Z" fill="#9CBDEF"/>
<path id="Vector_39" d="M422.224 315.469L458.643 278.9V301.167L441.649 315.469H422.224Z" fill="#9CBDEF"/>
<path id="Vector_40" d="M599.533 247.924H551.267V319.102H599.533V247.924Z" fill="#ABC7F4"/>
<path id="Vector_41" d="M551.267 275.873L586.597 250.162H599.533V259.103L551.267 307.644V275.873Z" fill="#9CBDEF"/>
<path id="Vector_42" d="M563.114 315.469L599.533 278.9V301.167L582.544 315.469H563.114Z" fill="#9CBDEF"/>
<path id="Vector_43" d="M444.387 430.669H438.794V576.568H444.387V430.669Z" fill="#A67C52"/>
<path id="Vector_44" d="M384.844 430.669H379.25V576.568H384.844V430.669Z" fill="#A67C52"/>
<path id="Vector_45" d="M88.3352 305.079H33.7302V316.166H88.3352V305.079Z" fill="#DBD5D5"/>
<path id="Vector_46" d="M88.3352 381.479H33.7302V392.566H88.3352V381.479Z" fill="#DBD5D5"/>
<path id="Vector_47" d="M88.3352 446.507H33.7302V457.594H88.3352V446.507Z" fill="#DBD5D5"/>
<path id="Vector_48" d="M88.3352 522.901H33.7302V533.989H88.3352V522.901Z" fill="#DBD5D5"/>
<path id="Vector_49" d="M228.109 430.669H173.504V441.757H228.109V430.669Z" fill="#DBD5D5"/>
<path id="Vector_50" d="M228.109 507.064H173.504V518.151H228.109V507.064Z" fill="#DBD5D5"/>
<path id="Vector_51" d="M602.7 430.669H548.095V441.757H602.7V430.669Z" fill="#DBD5D5"/>
<path id="Vector_52" d="M602.7 507.064H548.095V518.151H602.7V507.064Z" fill="#DBD5D5"/>
<path id="Vector_53" d="M745.828 446.507H691.223V457.594H745.828V446.507Z" fill="#DBD5D5"/>
<path id="Vector_54" d="M745.828 522.901H691.223V533.989H745.828V522.901Z" fill="#DBD5D5"/>
<path id="Vector_55" d="M228.109 238.377H173.504V249.464H228.109V238.377Z" fill="#DBD5D5"/>
<path id="Vector_56" d="M228.109 314.771H173.504V325.859H228.109V314.771Z" fill="#DBD5D5"/>
<path id="Vector_57" d="M369.562 239.074H314.957V250.162H369.562V239.074Z" fill="#DBD5D5"/>
<path id="Vector_58" d="M369.562 315.469H314.957V326.556H369.562V315.469Z" fill="#DBD5D5"/>
<path id="Vector_59" d="M461.81 239.074H407.205V250.162H461.81V239.074Z" fill="#DBD5D5"/>
<path id="Vector_60" d="M461.81 315.469H407.205V326.556H461.81V315.469Z" fill="#DBD5D5"/>
<path id="Vector_61" d="M602.7 239.074H548.095V250.162H602.7V239.074Z" fill="#DBD5D5"/>
<path id="Vector_62" d="M602.7 315.469H548.095V326.556H602.7V315.469Z" fill="#DBD5D5"/>
<path id="Vector_63" d="M745.828 305.079H691.223V316.166H745.828V305.079Z" fill="#DBD5D5"/>
<path id="Vector_64" d="M745.828 381.479H691.223V392.566H745.828V381.479Z" fill="#DBD5D5"/>
<path id="Vector_65" d="M446.528 421.723H313.465V430.669H446.528V421.723Z" fill="#DBD5D5"/>
<path id="Vector_66" d="M163.348 211.076H112.468V567.155H163.348V211.076Z" fill="#CCCCCC"/>
<path id="Vector_67" d="M291.382 211.076H240.502V567.155H291.382V211.076Z" fill="#CCCCCC"/>
<path id="Vector_68" d="M535.706 211.076H484.827V567.155H535.706V211.076Z" fill="#CCCCCC"/>
<path id="Vector_69" d="M664.857 211.076H613.977V567.155H664.857V211.076Z" fill="#CCCCCC"/>
<path id="Vector_70" d="M169.596 197.66H104.739V218.343H169.596V197.66Z" fill="#CCCCCC"/>
<path id="Vector_71" d="M169.596 556.813H104.739V577.496H169.596V556.813Z" fill="#CCCCCC"/>
<path id="Vector_72" d="M297.625 197.66H232.768V218.343H297.625V197.66Z" fill="#CCCCCC"/>
<path id="Vector_73" d="M297.625 556.813H232.768V577.496H297.625V556.813Z" fill="#CCCCCC"/>
<path id="Vector_74" d="M541.949 197.66H477.092V218.343H541.949V197.66Z" fill="#CCCCCC"/>
<path id="Vector_75" d="M541.949 556.813H477.092V577.496H541.949V556.813Z" fill="#CCCCCC"/>
<path id="Vector_76" d="M671.1 197.66H606.243V218.343H671.1V197.66Z" fill="#CCCCCC"/>
<path id="Vector_77" d="M671.1 556.813H606.243V577.496H671.1V556.813Z" fill="#CCCCCC"/>
<path id="Vector_78" d="M679.108 151.453H96.9073V197.665H679.108V151.453Z" fill="#E6E6E6"/>
<path id="Vector_79" d="M387.152 0L79.9135 151.453H694.395L387.152 0Z" fill="#CCCCCC"/>
<path id="Vector_80" d="M100.3 146.703L387.152 5.29688L674.004 146.703H100.3Z" fill="#E6E6E6"/>
<path id="Vector_81" d="M387.077 15.3379L124.862 139.56H649.291L387.077 15.3379Z" fill="#F2F2F2"/>
<path id="Vector_82" d="M686.194 576.562H88.3352V587.838H686.194V576.562Z" fill="#F2F2F2"/>
<path id="Vector_83" d="M694.39 587.838H82.9301V597.342H694.39V587.838Z" fill="#E6E6E6"/>
<path id="Vector_84" d="M700.729 597.342H75.104V609.642H700.729V597.342Z" fill="#F2F2F2"/>
<path id="Vector_85" d="M706.88 609.637H67.278V620.816H706.88V609.637Z" fill="#E6E6E6"/>
<path id="Vector_86" d="M713.59 620.816H61.0354V631.995H713.59V620.816Z" fill="#F2F2F2"/>
<path id="Vector_87" d="M123.584 222.384H118.593C117.887 222.384 117.315 222.956 117.315 223.661V550.352C117.315 551.057 117.887 551.629 118.593 551.629H123.584C124.29 551.629 124.862 551.057 124.862 550.352V223.661C124.862 222.956 124.29 222.384 123.584 222.384Z" fill="#F2F2F2"/>
<path id="Vector_88" d="M140.031 222.384H135.039C134.334 222.384 133.762 222.956 133.762 223.661V550.352C133.762 551.057 134.334 551.629 135.039 551.629H140.031C140.737 551.629 141.308 551.057 141.308 550.352V223.661C141.308 222.956 140.737 222.384 140.031 222.384Z" fill="#F2F2F2"/>
<path id="Vector_89" d="M155.919 222.384H150.927C150.222 222.384 149.65 222.956 149.65 223.661V550.352C149.65 551.057 150.222 551.629 150.927 551.629H155.919C156.625 551.629 157.197 551.057 157.197 550.352V223.661C157.197 222.956 156.625 222.384 155.919 222.384Z" fill="#F2F2F2"/>
<path id="Vector_90" d="M252.268 222.384H247.276C246.571 222.384 245.999 222.956 245.999 223.661V550.352C245.999 551.057 246.571 551.629 247.276 551.629H252.268C252.974 551.629 253.546 551.057 253.546 550.352V223.661C253.546 222.956 252.974 222.384 252.268 222.384Z" fill="#F2F2F2"/>
<path id="Vector_91" d="M268.715 222.384H263.723C263.017 222.384 262.445 222.956 262.445 223.661V550.352C262.445 551.057 263.017 551.629 263.723 551.629H268.715C269.42 551.629 269.992 551.057 269.992 550.352V223.661C269.992 222.956 269.42 222.384 268.715 222.384Z" fill="#F2F2F2"/>
<path id="Vector_92" d="M284.603 222.384H279.611C278.905 222.384 278.333 222.956 278.333 223.661V550.352C278.333 551.057 278.905 551.629 279.611 551.629H284.603C285.308 551.629 285.88 551.057 285.88 550.352V223.661C285.88 222.956 285.308 222.384 284.603 222.384Z" fill="#F2F2F2"/>
<path id="Vector_93" d="M495.846 222.384H490.854C490.149 222.384 489.577 222.956 489.577 223.661V550.352C489.577 551.057 490.149 551.629 490.854 551.629H495.846C496.552 551.629 497.124 551.057 497.124 550.352V223.661C497.124 222.956 496.552 222.384 495.846 222.384Z" fill="#F2F2F2"/>
<path id="Vector_94" d="M512.293 222.384H507.301C506.595 222.384 506.023 222.956 506.023 223.661V550.352C506.023 551.057 506.595 551.629 507.301 551.629H512.293C512.998 551.629 513.57 551.057 513.57 550.352V223.661C513.57 222.956 512.998 222.384 512.293 222.384Z" fill="#F2F2F2"/>
<path id="Vector_95" d="M528.181 222.384H523.189C522.484 222.384 521.912 222.956 521.912 223.661V550.352C521.912 551.057 522.484 551.629 523.189 551.629H528.181C528.886 551.629 529.458 551.057 529.458 550.352V223.661C529.458 222.956 528.886 222.384 528.181 222.384Z" fill="#F2F2F2"/>
<path id="Vector_96" d="M624.997 222.384H620.005C619.3 222.384 618.728 222.956 618.728 223.661V550.352C618.728 551.057 619.3 551.629 620.005 551.629H624.997C625.703 551.629 626.275 551.057 626.275 550.352V223.661C626.275 222.956 625.703 222.384 624.997 222.384Z" fill="#F2F2F2"/>
<path id="Vector_97" d="M641.444 222.384H636.452C635.746 222.384 635.174 222.956 635.174 223.661V550.352C635.174 551.057 635.746 551.629 636.452 551.629H641.444C642.149 551.629 642.721 551.057 642.721 550.352V223.661C642.721 222.956 642.149 222.384 641.444 222.384Z" fill="#F2F2F2"/>
<path id="Vector_98" d="M657.332 222.384H652.34C651.634 222.384 651.062 222.956 651.062 223.661V550.352C651.062 551.057 651.634 551.629 652.34 551.629H657.332C658.037 551.629 658.609 551.057 658.609 550.352V223.661C658.609 222.956 658.037 222.384 657.332 222.384Z" fill="#F2F2F2"/>
<path id="Vector_99" d="M376.454 430.669H321.103V500.543H376.454V430.669Z" fill="#ABC7F4"/>
<path id="Vector_100" d="M321.108 500.543L376.454 430.669V500.543H321.108Z" fill="#9CBDEF"/>
<path id="Vector_101" d="M384.844 500.543L440.195 430.669V500.543H384.844Z" fill="#9CBDEF"/>
<path id="Vector_102" d="M385.107 576.203L438.794 507.064V576.203H385.107Z" fill="#9CBDEF"/>
<path id="Vector_103" d="M321.108 576.203L374.79 507.064V576.203H321.108Z" fill="#9CBDEF"/>
<path id="Vector_104" d="M435.06 88.4147C438.293 63.2144 419.428 40.0297 392.924 36.6303C366.419 33.231 342.312 50.9041 339.079 76.1044C335.845 101.305 354.71 124.489 381.215 127.889C407.719 131.288 431.827 113.615 435.06 88.4147Z" fill="#CCCCCC"/>
<path id="Vector_105" d="M384.865 77.8972C378.012 76.899 373.08 75.3176 370.066 73.153C367.053 70.9885 365.57 66.8132 365.617 60.6272C365.638 57.2927 367.248 54.2516 370.448 51.5039C373.647 48.7562 378.529 47.3966 385.096 47.4252L385.15 40.2607H388.043L387.989 48.139C391.849 48.5497 395.542 49.9307 398.724 52.1533C401.762 54.325 403.922 55.4144 405.203 55.4216C406.845 55.3362 408.448 54.893 409.9 54.1228L398.966 69.4017C398.071 65.4376 397.209 61.4734 396.379 57.5092C394.765 54.2892 391.961 52.291 387.968 51.5146L387.807 72.187C396.334 72.2443 402.684 73.9938 406.856 77.4356C411.029 80.8774 413.092 85.1904 413.045 90.3746C413.002 96.1778 410.553 101.432 405.697 106.137C400.841 110.841 394.774 113.167 387.495 113.113L387.415 123.959H384.307L384.602 113.113C378.365 113.07 373.144 111.206 368.939 107.521C364.735 103.836 362.659 98.4694 362.713 91.4212C362.689 90.786 362.812 90.1539 363.074 89.5746C363.336 88.9954 363.728 88.4848 364.221 88.0831C365.244 87.2697 366.522 86.8456 367.828 86.8863C369.022 86.872 370.183 87.2786 371.108 88.0348C372.015 88.7915 372.466 89.9239 372.455 91.4212C372.484 92.7864 372.028 94.1177 371.167 95.1778C370.319 96.1975 368.914 96.7002 366.953 96.6859C367.862 101.315 369.736 104.394 372.573 105.922C375.411 107.45 379.433 108.231 384.64 108.267L384.865 77.8972ZM385.069 50.5755C381.839 50.4868 378.668 51.4513 376.035 53.3232C373.466 55.1872 372.171 57.5128 372.149 60.2999C372.128 63.087 373.314 65.5503 375.708 67.6898C378.102 69.8364 381.172 70.9098 384.919 70.9098L385.069 50.5755ZM387.753 79.1476L387.527 109.029C393.561 108.596 398.132 106.986 401.242 104.199C404.351 101.412 405.921 98.1832 405.949 94.5124C405.981 90.4874 404.321 86.9275 400.968 83.8327C397.615 80.7379 393.206 79.178 387.742 79.153L387.753 79.1476Z" fill="#F2F2F2"/>
</g>
</svg>
