<svg width="47" height="94" viewBox="0 0 47 94" fill="none" xmlns="http://www.w3.org/2000/svg">
<g id="money-falling-version5">
<path id="Vector" d="M47 0H0V94H47V0Z" fill="#BBE174"/>
<path id="Vector_2" d="M43.7137 2.77896H3.46655V90.7003H43.7137V2.77896Z" fill="#6FA83A"/>
<path id="Vector_3" d="M40.7869 5.48014H6.21252V87.6277H40.7869V5.48014Z" fill="#BBE174"/>
<path id="Vector_4" d="M6.46871 90.3702C7.97756 90.3702 9.20072 89.1423 9.20072 87.6276C9.20072 86.113 7.97756 84.8851 6.46871 84.8851C4.95986 84.8851 3.73669 86.113 3.73669 87.6276C3.73669 89.1423 4.95986 90.3702 6.46871 90.3702Z" fill="#6FA83A"/>
<path id="Vector_5" d="M6.46871 8.37477C7.97756 8.37477 9.20072 7.1469 9.20072 5.63224C9.20072 4.11759 7.97756 2.88972 6.46871 2.88972C4.95986 2.88972 3.73669 4.11759 3.73669 5.63224C3.73669 7.1469 4.95986 8.37477 6.46871 8.37477Z" fill="#6FA83A"/>
<path id="Vector_6" d="M40.7874 8.37477C42.2963 8.37477 43.5194 7.1469 43.5194 5.63224C43.5194 4.11759 42.2963 2.88972 40.7874 2.88972C39.2786 2.88972 38.0554 4.11759 38.0554 5.63224C38.0554 7.1469 39.2786 8.37477 40.7874 8.37477Z" fill="#6FA83A"/>
<path id="Vector_7" d="M40.7874 90.3702C42.2963 90.3702 43.5194 89.1423 43.5194 87.6276C43.5194 86.113 42.2963 84.8851 40.7874 84.8851C39.2786 84.8851 38.0554 86.113 38.0554 87.6276C38.0554 89.1423 39.2786 90.3702 40.7874 90.3702Z" fill="#6FA83A"/>
<path id="Vector_8" d="M23.3949 72.139C26.6147 72.139 29.2248 70.6215 29.2248 68.7496C29.2248 66.8776 26.6147 65.3601 23.3949 65.3601C20.1752 65.3601 17.5651 66.8776 17.5651 68.7496C17.5651 70.6215 20.1752 72.139 23.3949 72.139Z" fill="#71A83B"/>
<path id="Vector_9" d="M23.3949 23.4737C26.6147 23.4737 29.2248 21.9562 29.2248 20.0843C29.2248 18.2123 26.6147 16.6948 23.3949 16.6948C20.1752 16.6948 17.5651 18.2123 17.5651 20.0843C17.5651 21.9562 20.1752 23.4737 23.3949 23.4737Z" fill="#71A83B"/>
<path id="Vector_10" d="M23.3948 57.907C34.1357 57.907 42.8429 51.8675 42.8429 44.4173C42.8429 36.9671 34.1357 30.9275 23.3948 30.9275C12.654 30.9275 3.94678 36.9671 3.94678 44.4173C3.94678 51.8675 12.654 57.907 23.3948 57.907Z" fill="#71A83B"/>
<path id="Vector_11" d="M22.6471 45.1637C22.2938 47.749 21.7013 49.6159 20.8695 50.7644C20.0377 51.9129 18.4086 52.497 15.9822 52.5166C14.6742 52.5273 13.4685 51.9386 12.3649 50.7504C11.2613 49.5622 10.6983 47.7308 10.6759 45.2562L7.86434 45.2793L7.85596 44.1902L10.9489 44.1657C11.124 42.6125 11.6287 41.2575 12.4633 40.1006C13.2979 38.9437 13.7131 38.1241 13.7089 37.6419C13.7056 37.1606 13.5269 36.5735 13.1727 35.8806L19.2309 39.905C17.6809 40.2672 16.1302 40.6157 14.5788 40.9507C13.3253 41.5797 12.5573 42.6478 12.2748 44.1551L20.3898 44.09C20.3642 40.8781 21.0159 38.4769 22.3448 36.8864C23.6737 35.2958 25.3544 34.4926 27.3871 34.4768C29.6641 34.4585 31.7401 35.3493 33.6149 37.1492C35.4898 38.949 36.4387 41.2199 36.4615 43.9617L40.7204 43.9281L40.7302 45.0971L36.4712 45.0509C36.4899 47.4011 35.7882 49.379 34.3662 50.9845C32.9442 52.5899 30.8513 53.4034 28.0874 53.4249C27.5288 53.4301 27.089 53.2476 26.7678 52.8775C26.4442 52.5026 26.2701 52.0208 26.2791 51.5248C26.2664 51.0723 26.4202 50.6309 26.7113 50.285C27.004 49.9374 27.4446 49.761 28.0329 49.7558C28.6213 49.7507 29.1179 49.9049 29.5229 50.2184C29.9273 50.5319 30.1324 51.0576 30.138 51.7954C31.9533 51.4277 33.1514 50.7034 33.7322 49.6227C34.3131 48.5419 34.5971 47.0234 34.584 45.067L22.6471 45.1637ZM11.9215 45.2492C11.9322 46.5514 12.3095 47.6803 13.0533 48.6358C13.7971 49.5914 14.718 50.0654 15.816 50.0579C16.9145 50.049 17.875 49.5872 18.6974 48.6723C19.5199 47.7574 19.926 46.5954 19.9158 45.1861L11.9215 45.2492ZM23.1205 44.071L34.85 43.9778C34.6457 41.7075 33.9894 39.9952 32.8811 38.8411C31.7729 37.687 30.4964 37.1153 29.0516 37.1261C27.4718 37.1387 26.0843 37.7854 24.889 39.0661C23.6937 40.3468 23.1042 42.0151 23.1205 44.071Z" fill="#BBE174"/>
</g>
</svg>
