<svg width="42" height="94" viewBox="0 0 42 94" fill="none" xmlns="http://www.w3.org/2000/svg">
<g id="money-falling-version1">
<path id="Vector" d="M42.0002 81.3179L9.18663 94C-3.06075 63.8069 -3.06075 30.1931 9.18663 -2.86102e-06L42.0013 12.6821C33.0588 34.728 33.0584 59.2717 42.0002 81.3179V81.3179Z" fill="#BBE174"/>
<path id="Vector_2" d="M38.7737 79.8144L10.3861 89.9368C-0.0546997 62.0383 0.0113309 31.4245 10.5724 3.56921L38.9161 13.808C30.8445 35.0963 30.7941 58.4931 38.7737 79.8144V79.8144Z" fill="#6FA83A"/>
<path id="Vector_3" d="M35.8843 78.2578L11.2841 86.3574C2.35977 60.5372 2.46297 32.5567 11.5775 6.79991L36.1178 15.0738C28.8787 35.5296 28.7965 57.7516 35.8843 78.2578V78.2578Z" fill="#BBE174"/>
<path id="Vector_4" d="M13.4101 85.659C13.8926 87.0569 13.453 88.4917 12.3886 88.8726C11.3241 89.2534 10.0256 88.3898 9.52222 86.9415C9.01885 85.4933 9.52222 84.0386 10.6042 83.713C11.6863 83.3874 12.9266 84.2612 13.4101 85.659Z" fill="#6FA83A"/>
<path id="Vector_5" d="M13.6491 7.65654C13.1545 9.05117 11.9121 9.92229 10.8306 9.58757C9.74911 9.25286 9.25728 7.80244 9.76889 6.35148C10.2805 4.90053 11.5867 4.04497 12.6479 4.43332C13.709 4.82168 14.1404 6.26083 13.6491 7.65654Z" fill="#6FA83A"/>
<path id="Vector_6" d="M38.0177 15.8404C37.628 16.9453 36.4603 17.5772 35.3799 17.2447C34.2995 16.9121 33.7313 15.6972 34.1385 14.5375C34.5457 13.3778 35.764 12.7582 36.8252 13.1428C37.8863 13.5274 38.4067 14.7359 38.0177 15.8404Z" fill="#6FA83A"/>
<path id="Vector_7" d="M37.8286 77.6173C38.2132 78.7239 37.6824 79.9239 36.6196 80.3047C35.5568 80.6855 34.3434 80.0596 33.9423 78.8977C33.5411 77.7359 34.1181 76.5247 35.2001 76.1991C36.2822 75.8735 37.4455 76.5113 37.8286 77.6173Z" fill="#6FA83A"/>
<path id="Vector_8" d="M23.5842 65.3596C23.8634 66.9151 22.2104 68.5629 19.8447 69.0457C17.4789 69.5284 15.2649 68.5447 14.9566 66.8363C14.6483 65.1278 16.3854 63.4725 18.7791 63.14C21.1729 62.8074 23.3023 63.8035 23.5842 65.3596Z" fill="#71A83B"/>
<path id="Vector_9" d="M24.4524 24.3267C24.1057 25.8732 21.9383 26.785 19.5616 26.3559C17.1849 25.9268 15.5204 24.198 15.9001 22.503C16.2798 20.808 18.5318 19.9089 20.8755 20.4866C23.2193 21.0643 24.7981 22.7798 24.4524 24.3267Z" fill="#71A83B"/>
<path id="Vector_10" d="M32.193 45.0172C32.1299 47.8681 30.5802 50.4638 28.0529 52.5713C25.5251 54.6568 22.0169 56.2536 17.9965 56.605C13.9877 56.9553 10.2031 55.9002 7.43179 53.687C4.66161 51.4958 2.90531 48.146 2.99104 44.4298C3.06248 40.7137 4.95835 37.4358 7.81866 35.3561C10.6812 33.2545 14.5075 32.3523 18.4982 32.8624C22.5004 33.3758 25.9372 35.1153 28.376 37.3006C30.8115 39.5089 32.2502 42.1662 32.193 45.0172Z" fill="#71A83B"/>
<path id="Vector_11" d="M17.0277 45.383C16.7298 47.6686 16.3276 49.3346 15.7335 50.3822C15.1395 51.4298 13.9459 52.0112 12.1237 52.1094C11.1439 52.163 10.2108 51.6562 9.34636 50.5571C8.48195 49.458 8.02034 47.7142 8.03848 45.3465L5.92664 45.3396C5.92957 44.9873 5.93378 44.6345 5.93927 44.2812L8.26214 44.3081C8.427 42.8298 8.86662 41.5521 9.55133 40.4932C10.236 39.4344 10.6075 38.6925 10.6389 38.2403C10.6702 37.7882 10.5839 37.2303 10.3756 36.5577C11.7714 37.9477 13.1916 39.2911 14.6361 40.5882C13.4546 40.8513 12.2746 41.112 11.0961 41.3702C10.1272 41.9109 9.50243 42.8968 9.25788 44.3204C11.2889 44.3451 13.32 44.3705 15.3511 44.3966C15.4016 41.507 16.0479 39.3705 17.1552 38.0435C18.2625 36.7164 19.6006 36.1441 21.1206 36.2798C22.8241 36.4311 24.2903 37.3413 25.5718 38.9237C26.8533 40.5061 27.4528 42.3599 27.4138 44.5655L30.6115 44.6143C30.606 44.9183 30.6022 45.2223 30.6 45.5262L27.4028 45.4415C27.3874 47.3323 26.8879 48.9205 25.8641 50.269C24.8403 51.6175 23.3132 52.3739 21.2404 52.4988C20.8222 52.524 20.4837 52.3846 20.2265 52.0772C19.9693 51.7699 19.8303 51.3847 19.81 50.925C19.7833 50.5439 19.8852 50.1646 20.1001 49.8453C20.3115 49.5403 20.6385 49.3811 21.081 49.3679C21.5206 49.3545 21.8987 49.4752 22.2092 49.7348C22.5197 49.9944 22.6856 50.4321 22.7148 51.0511C24.0633 50.6896 24.9393 50.062 25.3575 49.1678C25.7756 48.2736 25.9729 47.0335 25.9861 45.435C23.0003 45.4146 20.0142 45.3973 17.0277 45.383ZM8.97323 45.3497C8.96389 46.5835 9.25129 47.6562 9.8217 48.5504C10.3921 49.4446 11.0988 49.8678 11.922 49.8378C12.7452 49.8077 13.4546 49.3668 14.0608 48.5268C14.6669 47.6868 14.9664 46.6425 14.9763 45.3712C12.9756 45.3637 10.9746 45.3565 8.97323 45.3497V45.3497ZM17.4019 44.4234C20.3379 44.4627 23.2738 44.504 26.2098 44.5473C26.0999 42.6962 25.6921 41.2796 24.925 40.2738C24.1578 39.2681 23.2462 38.7145 22.1619 38.641C20.9794 38.56 19.8918 39.0299 18.9197 40.0893C17.9476 41.1487 17.4332 42.6077 17.4019 44.4234Z" fill="#BBE174"/>
</g>
</svg>
