<svg width="698" height="702" viewBox="0 0 698 702" fill="none" xmlns="http://www.w3.org/2000/svg">
<g id="template 1 modified 1" clip-path="url(#clip0)">
<g id="owner-hand">
<path id="Vector" d="M316.015 194.152C313.585 193.865 311.221 193.173 309.021 192.103C306.989 191.107 305.481 189.513 303.568 188.369C303.52 188.341 303.474 188.31 303.43 188.277L303.494 188.369C303.494 188.369 293.577 182.067 289.016 181.818C279.843 180.44 288.505 186.927 295.765 191.369C303.025 195.811 298.023 194.373 298.023 194.373C282.183 189.233 274.684 186.04 276.206 190.826C293.926 200.896 297.044 203.004 289.687 199.876C282.33 196.748 272.776 198.801 279.549 201.571C286.321 204.341 292.207 207.543 291.876 207.662C291.545 207.781 291.287 208.581 286.142 209.114C280.997 209.646 283.383 211.828 283.383 211.828C298.657 216.969 310.971 213.785 310.971 213.785L320.544 204.231C319.373 200.805 318.007 197.449 316.451 194.18C316.305 194.178 316.16 194.169 316.015 194.152V194.152Z" fill="#F7B38F"/>
<path id="Vector_2" d="M393.908 285.776C394.19 285.774 394.472 285.802 394.749 285.858C394.847 285.799 394.949 285.746 395.053 285.698C394.175 281.66 393.319 277.613 392.418 273.58C390.951 267.016 389.135 260.511 388.349 253.827C388.238 252.976 388.357 252.11 388.694 251.319C372.955 238.356 357.465 225.793 341.018 214.571C330.703 207.522 321.747 198.67 314.58 188.442C311.315 183.849 306.764 180.767 302.235 177.905C298.556 179.324 300.313 180.987 300.915 183.523C303.379 186.279 306 189.494 308.621 192.43C309.417 195.81 309.007 199.89 309.692 202.797C309.665 207.487 312.047 211.833 305.058 213.252C291.37 215.356 314.387 215.701 319.311 216.541C324.226 221.769 329.105 227.051 334.089 232.228C348.407 247.098 362.187 262.546 377.544 276.327C382.339 280.64 387.457 284.696 393.522 285.776C393.65 285.769 393.779 285.769 393.908 285.776V285.776Z" fill="#F8C49F"/>
</g>
<g id="owner-forearm">
<path id="Vector_3" d="M383.604 281.058C385.517 282.656 387.651 283.969 389.94 284.958C392.951 286.309 395.839 286.29 398.087 284.545C398.395 284.03 398.575 283.681 398.575 283.681L428.769 235.651L424.3 214.759C424.3 214.759 399.011 208.429 396.51 214.759C381.277 253.653 378.197 275.854 378.197 275.854L377.939 276.428C380.266 277.232 381.733 279.455 383.604 281.058Z" fill="#F8C49F"/>
</g>
<g id="owner-body">
<g id="shirt">
<path id="Vector_4" d="M507.991 233.064C498.676 231.287 491.705 219.376 491.172 207.616C490.197 186.054 496.037 165.961 504.046 146.296L526.319 153.15L526.273 153.118C526.502 154.096 527.22 154.427 528.112 154.519C538.351 163.113 545.17 173.771 547.565 187.037C549.731 199.031 552.448 210.946 552.692 223.216C540.659 222.27 529.588 225.122 519.435 231.604C518.13 229.013 518.626 225.811 516.677 223.441C516.001 206.5 511.104 189.729 514.709 172.498C513.463 174.353 512.646 176.462 512.318 178.672C510.24 196.752 510.64 215.035 507.991 233.064Z" fill="#F15A24"/>
<path id="Vector_5" d="M456.37 142.695C456.334 145.52 453.644 146.209 452.127 147.785C449.828 150.169 447.988 152.709 447.156 155.952C445.437 162.649 448.393 166.825 455.221 167.275C472.261 168.391 484.882 159.622 491.466 142.079L494.069 142.36C485.066 162.429 476.624 182.733 468.555 203.238H423.803C429.62 181.396 439.22 162.006 450.858 143.522L456.37 142.695Z" fill="#F15A24"/>
<path id="Vector_6" d="M439.602 146.154C437.234 153.853 431.836 159.847 427.744 166.522C418.405 181.768 410.437 197.758 401.789 213.34L399.949 213.381L397.278 213.197L397.099 209.017C397.238 208.829 397.327 208.61 397.357 208.378C397.388 208.147 397.359 207.911 397.273 207.694C399.605 193.978 402.943 180.551 409.794 168.295C416.396 156.531 425.164 147.509 439.602 146.154Z" fill="#F15A24"/>
<path id="Vector_7" d="M496.069 297.857C498.198 298.61 500.667 298.316 502.506 299.938C502.152 309.91 503.159 319.837 503.49 329.796C503.564 331.996 504.584 334.426 502.57 336.365L495.545 336.057C492.814 323.278 494.294 310.581 496.069 297.857Z" fill="#F15A24"/>
<path id="Vector_8" d="M526.3 153.15L504.028 146.296C504.334 145.445 504.65 144.595 504.975 143.747C512.612 145.672 520.226 147.67 526.3 153.15Z" fill="#ED1C24"/>
<path id="Vector_9" d="M516.658 223.441C515.549 227.453 514.442 231.463 513.339 235.471C511.317 235.369 509.408 234.509 507.991 233.064C510.64 215.03 510.24 196.775 512.3 178.672C512.628 176.462 513.445 174.353 514.69 172.498C511.086 189.729 515.982 206.5 516.658 223.441Z" fill="#ED1C24"/>
<path id="Vector_10" d="M526.3 153.15L528.103 154.528C528.103 154.528 525.932 155.098 526.3 153.15Z" fill="#F15A24"/>
<g id="pants">
<path id="Vector_11" d="M498.262 400.615C495.839 383.954 498.216 367.036 495.572 350.384C495.421 349.466 495.756 348.575 496.864 347.683C501.186 348.143 505.366 350.049 509.61 351.703C516.015 367.629 513.573 383.986 512.497 400.574C507.772 401.171 502.991 401.185 498.262 400.615V400.615Z" fill="#29ABE2"/>
<path id="Vector_12" d="M495.536 336.048L502.561 336.356C503.701 339.695 506.299 342.382 506.897 345.965C498.216 345.694 495.834 343.618 495.536 336.048Z" fill="#29ABE2"/>
</g>
<path id="Vector_13" d="M502.511 299.938L502.667 269.152L488.243 299.455L502.511 299.938Z" fill="#F15A24"/>
</g>
<g id="apron">
<g id="apron_2">
<path id="Vector_14" d="M403.255 210.662C403.255 210.662 410.842 280.764 419.642 290.3C428.443 299.837 436.103 237.658 436.103 237.658L434.337 211.53C434.337 211.53 406.662 206.927 403.255 210.662Z" fill="#4A545D"/>
<path id="Vector_15" d="M449.244 288.569L428.369 275.463L434.921 246.092L440.917 244.144L455.736 254.346L449.244 288.569Z" fill="#4A545D"/>
<path id="Vector_16" d="M510.782 347.739L506.897 345.965C498.216 345.694 495.834 343.618 495.535 336.048C492.813 323.278 494.294 310.567 496.069 297.857C476.942 290.966 458.063 283.442 439.832 275.748C436.737 277.714 438.719 280.254 437.749 281.637C435.211 285.891 430.59 284.297 427.822 278.614C427.22 277.374 426.64 276.129 426.144 275.086C423.955 272.983 420.309 273.474 418.263 271.503C418.102 271.88 417.927 272.252 417.73 272.62C417.73 272.753 417.697 272.886 417.684 273.024C417.481 275.238 417.33 277.475 417.008 279.675C417.045 281.217 416.906 282.759 416.594 284.269C412.41 304.021 409.104 323.976 406.547 344.022C404.175 362.631 402.042 381.276 401.058 400.064C402.005 400.39 402.639 400.799 403.274 400.794C434.935 400.748 466.598 400.68 498.262 400.588C495.839 383.927 498.216 367.009 495.572 350.357C495.421 349.438 495.756 348.547 496.864 347.656C501.186 348.115 505.366 350.022 509.61 351.675C511.067 350.83 511.973 349.764 510.782 347.739Z" fill="#4A545D"/>
<path id="Vector_17" d="M439.602 146.154C443.022 144.214 446.93 143.3 450.858 143.522C439.22 162.006 429.62 181.396 423.803 203.238H468.546C476.615 182.733 485.057 162.429 494.059 142.36C497.522 141.452 501.197 141.842 504.391 143.457L504.763 144.473C496.395 164.717 490.16 185.383 491.163 207.616C491.696 219.376 498.667 231.287 507.982 233.064C509.399 234.509 511.308 235.368 513.329 235.471C509.306 249.133 504.46 262.574 502.658 276.814C482.827 274.301 464.155 267.525 445.34 261.692C442.457 255.261 440.632 248.687 436.337 243.386C434.995 241.733 434.342 238.834 431.119 240.171C428.645 234.374 428.76 227.97 426.898 222.031C424.636 214.819 420.658 210 411.417 212.802C410.138 213.188 408.732 213.987 407.279 214.451C404.612 215.301 402.308 212.375 403.651 209.922C411.596 195.402 419.081 180.638 427.744 166.49C431.836 159.847 437.234 153.853 439.602 146.154ZM456.131 218.939H478.565C479.452 216.913 479.535 215.393 478.105 213.886H456.32C454.913 215.678 455.028 217.166 456.131 218.939Z" fill="#4A545D"/>
<path id="Vector_18" d="M456.131 218.939C455.051 217.166 454.936 215.678 456.32 213.886H478.105C479.535 215.393 479.452 216.913 478.565 218.939H456.131Z" fill="#EBE2E7"/>
<path id="Vector_19" d="M439.832 275.748L439.023 238.342L428.374 237.787C428.093 238.917 418.291 271.577 417.73 272.62C417.73 272.753 417.697 272.886 417.684 273.024C417.606 273.855 417.537 274.691 417.468 275.523L417.661 277.434L426.438 285.477C426.438 285.477 439.289 287.622 439.832 286.906C440.374 286.189 439.832 275.748 439.832 275.748Z" fill="#4A545D"/>
<path id="Vector_20" d="M430.746 218.939L429.79 226.656L433.307 243.483L437.602 242.858L430.746 218.939Z" fill="#4A545D"/>
</g>
<path id="Vector_21" d="M403.265 210.657L403.738 209.793L403.545 210.937L403.265 210.657Z" fill="#4A545D"/>
<path id="Vector_22" d="M496.069 297.857L502.667 276.823L469.208 247.994L447.299 255.637C447.299 255.637 443.257 279.437 443.257 279.924C443.257 280.41 458.311 306.213 458.311 306.213C458.311 306.213 476.85 302.134 477.498 301.807C478.146 301.481 496.069 297.857 496.069 297.857Z" fill="#4A545D"/>
</g>
<path id="Vector_23" d="M407.559 299.557L397.218 264.452C395.632 258.481 394.276 257.562 394.276 257.562C394.276 257.562 392.823 253.088 391.563 251.747C391.154 251.956 390.734 252.14 390.303 252.298L390.188 252.335C390.04 252.882 389.941 253.441 389.894 254.007C389.131 261.609 393.972 266.988 393.972 266.988L406.534 303.737C408.41 302.579 407.559 299.557 407.559 299.557Z" fill="#808080" stroke="black" stroke-miterlimit="10"/>
<path id="Vector_24" d="M391.917 256.147L394.216 262.854C394.216 262.854 398.625 268.531 399.274 273.084L406.019 296.373C406.019 296.373 405.936 299.727 405.324 299.589L392.74 262.381C392.74 262.381 390.721 257.112 391.917 256.147Z" fill="#CCCCCC" stroke="black" stroke-miterlimit="10"/>
<path id="Vector_25" d="M396.359 260.148L391.54 251.747C392.202 253.772 407.233 299.584 407.738 300.719C408.244 301.853 411.136 305.923 411.136 305.923L396.359 260.148Z" fill="#E6E6E6" stroke="black" stroke-miterlimit="10"/>
<path id="Vector_26" d="M411.136 305.928C411.136 305.928 411.693 309.019 410.741 309.272L406.672 303.691L407.738 300.728L411.136 305.928Z" fill="#808080" stroke="black" stroke-miterlimit="10"/>
<path id="Vector_27" d="M410.81 244.434C410.761 244.438 410.712 244.438 410.663 244.434L392.22 251.407L391.531 251.751L406.672 303.691L410.741 309.277L430.015 301.964L410.81 244.434Z" fill="#808080" stroke="black" stroke-miterlimit="10"/>
<path id="Vector_28" d="M426.833 292.253L416.493 257.149C414.906 251.177 413.55 250.258 413.55 250.258C413.55 250.258 412.102 245.816 410.847 244.457C410.746 244.446 410.647 244.423 410.552 244.388C410.313 244.438 410.092 244.475 409.84 244.516C409.761 244.58 409.675 244.632 409.582 244.672C409.352 245.327 409.212 246.01 409.168 246.703C408.405 254.305 413.247 259.689 413.247 259.689L425.808 296.437C427.679 295.266 426.833 292.253 426.833 292.253Z" fill="#808080" stroke="black" stroke-miterlimit="10"/>
<path id="Vector_29" d="M411.191 248.834L413.49 255.541C413.49 255.541 417.904 261.218 418.548 265.771L425.293 289.06C425.293 289.06 425.215 292.413 424.603 292.299L412.014 255.091C412.014 255.091 409.996 249.799 411.191 248.834Z" fill="#CCCCCC" stroke="black" stroke-miterlimit="10"/>
<path id="Vector_30" d="M415.67 252.835L410.828 244.434C411.472 246.4 426.521 292.276 427.031 293.41C427.542 294.545 430.429 298.615 430.429 298.615L415.67 252.835Z" fill="#E6E6E6" stroke="black" stroke-miterlimit="10"/>
<path id="Vector_31" d="M430.411 298.638C430.411 298.638 430.962 301.729 430.015 301.982L425.941 296.396L427.013 293.433L430.411 298.638Z" fill="#808080" stroke="black" stroke-miterlimit="10"/>
<path id="Vector_32" d="M409.168 246.689C409.412 245.812 409.587 245.164 409.716 244.686C409.669 244.685 409.624 244.674 409.582 244.654V244.654L390.303 252.289C390.303 252.289 388.464 260.185 393.981 266.988L413.256 259.68C413.256 259.68 407.605 252.316 409.168 246.689Z" fill="#999999"/>
<path id="Vector_33" d="M518.548 281.403C512.727 283.644 506.557 283.024 494.303 285.28C474.532 288.229 454.72 286.759 435.032 286.235C430.774 281.122 427.39 275.67 422.369 271.77C422.052 271.522 421.73 271.283 421.399 271.049C419.661 269.822 418.245 267.209 415.513 269.386C415.684 270.208 415.867 271.017 416.093 271.802C416.819 274.315 417.992 276.561 420.603 277.957L421.675 280.254C423.1 281.031 418.87 283.833 415.697 283.497C411.145 283.015 404.377 282.524 399.94 281.903C399.835 281.903 399.789 281.798 399.706 281.931C399.246 284.467 400.625 286.033 400.092 288.017C399.559 290.002 400.635 291.499 400.368 293.213C400.311 294.038 400.38 294.867 400.575 295.67C400.683 296.234 400.944 296.758 401.329 297.185C401.714 297.611 402.209 297.925 402.759 298.091C404.543 298.614 406.362 299.01 408.203 299.276L409.784 299.561C413.89 300.48 418.861 301.399 423.385 301.637C426.912 301.821 432.953 301.67 433.5 301.233L435.275 301.454C435.454 301.463 435.633 301.484 435.809 301.518C454.72 303.87 474.146 305.891 493.632 307.301C497.352 307.572 498.175 307.761 500.395 307.563C512.378 307.104 527.243 312.06 536.038 303.475C554.242 285.744 518.148 279.616 518.548 281.403Z" fill="#FAD5B8"/>
<path id="Vector_34" d="M403.743 290.521C403.743 290.521 412.906 291.486 415.477 291.127Z" fill="#F7B38F"/>
<path id="Vector_35" d="M403.94 287.103C403.94 287.103 413.136 287.411 415.688 286.864Z" fill="#F7B38F"/>
<path id="Vector_36" d="M403.807 294.462C403.807 294.462 412.934 295.739 415.513 295.464Z" fill="#F7B38F"/>
<path id="Vector_37" d="M460.348 129.548L460.486 139.195C460.486 139.195 480.514 142.272 481.636 140.058C482.758 137.844 486.34 123.305 486.34 123.305H465.35L460.348 129.548Z" fill="#FAD5B8"/>
<path id="Vector_38" d="M471.521 51.0714C474.1 47.9524 477.668 46.5605 481.383 45.4305C479.71 50.1251 475.764 50.8601 471.521 51.0714Z" fill="#FAD5B8"/>
<path id="Vector_39" d="M514.704 90.0893C512.323 85.978 514.874 83.0336 515.523 79.6159C520.7 83.9201 520.585 85.6106 514.704 90.0893Z" fill="#F7B38F"/>
<path id="Vector_40" d="M471.521 51.0714C471.521 51.0714 483.834 46.5881 489.287 47.3047C494.74 48.0213 480.882 41.1401 480.882 41.1401C480.882 41.1401 473.282 46.3217 473.102 46.7672C472.923 47.2128 471.521 51.0714 471.521 51.0714Z" fill="#8C6239"/>
<path id="Vector_41" d="M456.37 142.695C458.338 142.236 459.129 140.361 460.509 139.199C471.084 138.395 479.682 134.325 485.002 124.454C480.146 126.144 475.075 126.314 470.288 127.803C467.07 128.804 463.267 126.594 460.375 129.548C460.375 127.954 457.805 127.251 455.442 127.054C438.995 125.579 422.337 106.888 418.451 85.5371C418.203 84.1957 417.587 82.9187 417.146 81.6141C427.325 64.4985 441.335 51.7329 451.52 50.4651C448.88 56.3541 447.198 62.3625 447.29 69.8821C455.423 62.5003 462.403 55.3389 471.548 51.0714C475.792 50.8601 479.737 50.1252 481.411 45.4305V45.4581L485.77 45.5408C486.79 46.1931 488.905 43.1062 488.988 44.2224C486.404 45.9955 491.931 46.386 492.634 48.251C495.742 56.5194 501.72 60.1483 508.028 64.8338C509.449 70.1394 505.15 80.6403 508.028 84.8664C507.945 87.6455 503.692 93.0384 503.609 95.8175C501.678 97.7009 494.873 112.892 494.142 116.925L494.184 116.851L492.634 118.308C489.692 126.117 491.876 134.156 491.503 142.079C484.919 159.622 472.298 168.391 455.258 167.275C448.43 166.816 445.473 162.649 447.193 155.952C448.021 152.709 449.86 150.169 452.163 147.785C453.644 146.209 456.334 145.52 456.37 142.695ZM473.659 86.5293C478.463 81.3799 478.114 79.6389 471.64 76.8828C469.208 78.1919 467.833 80.135 468.56 83.0657C469.212 85.6978 470.932 86.9381 473.659 86.5293ZM435.992 87.3332C441.731 83.9109 441.878 82.882 437.409 77.7831C434.65 77.1997 432.811 78.3803 432.259 80.9986C431.597 84.1176 432.779 86.4144 435.992 87.3332Z" fill="#FAD5B8"/>
<path id="Vector_42" d="M503.573 95.8175L503.816 87.4847C505.655 81.7106 507.062 75.1234 503.228 70.4885C497.375 63.4006 492.795 55.495 487.135 48.3474C487.048 47.2266 482.445 45.7796 481.383 45.4718C491.08 48.2647 474.114 47.9661 471.534 51.0852C462.389 55.3526 455.409 62.514 447.276 69.8959C447.184 62.3762 448.867 56.3678 451.506 50.4788C441.321 51.7467 427.312 64.5122 417.132 81.6279C412.681 75.9824 413.067 69.1012 412.391 62.5462C409.063 30.3314 429.569 7.3589 462.008 6.24266C473.084 5.8614 483.581 8.12603 494.129 10.7536C499.31 14.9613 505.338 18.1492 509.591 23.487C521.656 38.462 522.498 55.5593 519.091 73.4697C513.674 72.9782 511.366 75.3071 510.64 80.8562C509.812 87.2229 508.088 93.5712 504.327 100.048L503.573 95.8175Z" fill="#8C6239"/>
<path id="Vector_43" d="M458.936 98.1832C458.936 98.1832 455.52 94.5818 452.77 98.1832H458.936Z" fill="#FFBC9D"/>
<path id="Vector_44" d="M436.314 87.4985C438.75 87.4985 440.724 85.2588 440.724 82.4961C440.724 79.7333 438.75 77.4937 436.314 77.4937C433.879 77.4937 431.905 79.7333 431.905 82.4961C431.905 85.2588 433.879 87.4985 436.314 87.4985Z" fill="#4E453C"/>
<path id="Vector_45" d="M472.932 86.6027C475.367 86.6027 477.342 84.3631 477.342 81.6003C477.342 78.8376 475.367 76.5979 472.932 76.5979C470.497 76.5979 468.523 78.8376 468.523 81.6003C468.523 84.3631 470.497 86.6027 472.932 86.6027Z" fill="#4E453C"/>
<path id="Vector_46" d="M509.072 23.9785C504.819 18.6407 498.791 15.4528 493.609 11.2451C503.159 0.32155 515.426 -2.68724 529.574 2.41622C542.407 7.04655 549.267 16.9044 549.506 31.319C549.621 38.067 549.207 44.8333 549.547 51.5675C550.09 62.1603 555.81 69.432 564.615 71.986C570.036 73.557 574.647 71.4118 579.296 69.4228C580.965 70.7503 579.921 71.9538 579.337 73.1619C574.348 83.5067 563.985 89.2395 551.805 88.3575C538.981 87.4388 529.574 80.4428 526.176 69.1701C524.789 64.4732 524.158 59.586 524.305 54.6912C524.42 49.3396 524.447 43.9835 524.512 38.6136C524.64 26.6474 520.962 23.1608 509.072 23.9785Z" fill="#8C6239"/>
<path id="Vector_47" d="M503.573 95.8175L504.313 100.034C508.074 93.5574 509.798 87.2091 510.626 80.8424C511.352 75.275 513.661 72.9644 519.077 73.4559C521.528 74.5033 523.1 76.4509 524.397 78.5732C525.597 91.0172 519.592 98.4634 508.764 97.7054C504.92 104.766 501.545 112.405 494.129 116.925C494.827 112.892 501.651 97.7008 503.573 95.8175ZM514.704 90.0893C520.585 85.5968 520.682 83.9063 515.523 79.6159C514.874 83.0473 512.323 85.9918 514.704 90.0893Z" fill="#F8C49F"/>
<path id="Vector_48" d="M460.348 129.548C471.507 127.118 465.129 128.57 470.261 127.803C475.222 127.063 480.123 126.144 484.974 124.454C479.654 134.325 471.042 138.395 460.481 139.199L460.348 129.548Z" fill="#F8C49F"/>
<path id="Vector_49" d="M492.597 118.308L494.147 116.851L492.597 118.308Z" fill="#F8C49F"/>
<path id="Vector_50" d="M441.069 97.7192C436.931 101.394 432.112 101.509 427.33 98.027C431.762 94.5359 436.094 94.8298 441.069 97.7192Z" fill="#FFBC9D"/>
<path id="Vector_51" d="M488.096 98.2475C483.958 101.922 479.144 102.033 474.358 98.5552C478.804 95.0641 483.121 95.3535 488.096 98.2475Z" fill="#FFBC9D"/>
<path id="Vector_52" d="M518.383 235.981L516.645 270.295C516.645 270.295 514.497 293.227 519.606 296.832C521.771 298.358 530.723 303.925 535.027 302.772C540.894 301.196 542.048 292.161 541.791 289.85C541.331 285.84 551.906 221.64 551.906 221.64C551.906 221.64 521.091 211.548 518.383 235.981Z" fill="#FAD5B8"/>
<path id="Vector_53" d="M518.258 221.521C529.326 216.757 540.71 215.714 552.435 218.581C552.214 219.892 551.995 221.198 551.777 222.499C543.041 221.181 534.457 221.245 526.029 225.035C524.452 234.704 522.976 244.089 521.357 253.451C520.98 255.628 521.472 258.233 519.058 259.684C518.668 258.283 518.033 256.928 518.497 255.398C518.681 255.274 519.045 255.109 519.026 255.036C518.903 254.664 518.75 254.302 518.566 253.956C518.456 243.143 518.353 232.331 518.258 221.521Z" fill="#F8C49F"/>
</g>
<g id="owner-mouth">
<path id="Vector_54" d="M447.152 110.356H467.677C467.677 110.356 456.021 126.245 447.152 110.356Z" fill="#FDFDFD"/>
</g>
<g id="owner-eyebrows">
<path id="Vector_55" d="M428.144 77.5626C428.144 77.5626 434.415 69.3768 442.807 75.8629" stroke="#8C6239" stroke-miterlimit="10"/>
<path id="Vector_56" d="M465.52 76.0145C465.52 76.0145 471.792 67.8288 480.188 74.3149" stroke="#8C6239" stroke-miterlimit="10"/>
</g>
<g id="table">
<path id="Vector_57" d="M474.243 499.024H561.828V558.203L474.275 557.311L474.243 499.024Z" fill="#754C24"/>
<g id="shadow">
<path id="Vector_58" d="M692.882 661.149C682.28 658.403 671.434 656.703 660.499 656.073C658.499 655.959 656.43 656.073 655.134 654.434C654.991 654.989 654.849 655.536 654.729 656.096C654.609 656.744 654.44 657.381 654.223 658.003C653.805 659.114 653.561 660.3 653.106 661.384C652.651 662.468 652.039 663.29 650.853 663.51C650.697 663.538 650.54 663.556 650.393 663.575C649.474 663.873 648.407 663.763 647.4 663.763C614.666 663.781 581.938 663.781 549.216 663.763C547.535 663.685 545.86 663.523 544.195 663.276C530.034 663.331 515.877 663.437 501.72 663.442C389.898 663.442 278.079 663.442 166.261 663.442C163.304 663.442 160.348 663.354 157.391 663.308C155.915 665.55 157.106 667.025 158.729 668.55C160.959 670.649 163.033 672.918 165.166 675.109C172.762 675.183 180.404 674.567 187.875 676.487C194.23 678.132 200.492 679.992 204.313 687.154C182.459 690.061 161.217 688.15 139.744 686.759C139.134 681.123 139.483 675.424 140.779 669.905C140.757 667.74 140.736 665.576 140.715 663.414H107.2C105.504 660.658 106.589 658.177 105.78 656.009C99.1035 656.501 92.9744 659.652 86.2661 659.983C85.8063 662.615 83.7189 664.686 83.6453 667.704C85.7879 671.2 89.526 673.06 92.7721 675.481C102.271 675.32 111.725 675.66 120.796 678.848C125.344 680.447 129.785 682.353 132.323 688.633C109.495 689.386 87.4156 689.51 65.1065 687.333C64.1455 681.311 66.2054 675.812 66.1778 670.208C66.0675 669.684 65.9571 669.156 65.8514 668.632C56.9191 669.086 48.0499 670.384 39.3628 672.509C39.3578 672.543 39.3501 672.577 39.3398 672.61C39.218 674.646 39.218 676.688 39.3398 678.724C39.8372 681.11 40.4931 683.459 41.3031 685.757C41.5836 686.322 41.8824 686.883 42.1859 687.434C45.7368 691.17 49.5339 694.664 53.5519 697.893C66.7417 700.084 80.0748 701.303 93.4434 701.541C117.086 702 140.747 702.551 164.412 700.691C180.418 699.432 196.267 697.507 211.84 693.736C217.702 692.317 223.666 690.3 227.574 685.041C228.728 683.598 226.194 681.724 228.406 680.222C237.427 680.222 246.687 680.888 255.943 681.099C287.209 681.802 318.474 681.876 349.763 682.358C378.27 682.817 406.81 683.134 435.344 681.742C460.237 680.525 485.181 681.627 510.125 680.548C535.211 679.459 560.334 679.234 585.429 677.879C600.377 677.066 615.316 676.271 630.254 675.325C647.726 674.218 665.12 672.693 682.376 669.891C687.742 669.023 693.715 669.082 698.009 664.709C697.062 661.93 694.906 661.673 692.882 661.149Z" fill="#AEB7B7"/>
<path id="Vector_59" d="M151.934 656.018C100.345 653.519 67.3319 654.92 46.5677 658.265C45.9516 658.917 45.3401 659.574 44.7515 660.254C43.3653 662.281 42.1135 664.397 41.0043 666.588C40.3285 668.563 39.7726 670.577 39.3398 672.619C39.218 674.656 39.218 676.697 39.3398 678.734C39.8372 681.119 40.4931 683.468 41.3031 685.766C41.5882 686.336 41.887 686.896 42.1951 687.457C43.2618 688.596 44.3561 689.708 45.478 690.792C89.8847 693.438 183.259 698.78 192.878 697.48C205.55 695.767 226.309 681.862 226.309 681.862C226.309 681.862 694.648 674.08 697.995 664.732C679.438 636.886 339.528 665.095 151.934 656.018Z" fill="#AEB7B7"/>
</g>
<path id="Vector_60" d="M46.7148 339.691L46.9493 339.424L46.6688 339.645L46.7148 339.691Z" fill="#F7B38F"/>
<g id="table and machine">
<g id="table_2">
<path id="Vector_61" d="M77.6174 413.505L80.1095 434.475L164.711 432.527L159.842 410.694L77.6174 413.505Z" fill="#8C6239"/>
<path id="Vector_62" d="M479.857 595.948L484.993 611.516L498.354 610.918L494.947 591.552L479.857 595.948Z" fill="#754C24"/>
<path id="Vector_63" d="M545.952 555.947L561.888 555.814L561.851 519.263L539.197 520.884L545.952 555.947Z" fill="#754C24"/>
<path id="Vector_64" d="M561.796 467.309L561.888 552.157L560.476 552.107C558.113 542.46 560.628 532.58 559.037 522.442C556.738 522.538 554.122 520.232 553.106 524.362C552.996 533.576 552.884 542.791 552.77 552.006C550.081 552.35 548.674 554.877 545.952 555.952C543.795 555.952 541.271 555.952 538.747 555.952L485.705 556.237C484.887 556.158 484.546 556.489 484.786 557.316C484.786 558.189 484.822 559.062 484.845 559.939C484.845 560.738 484.845 561.542 484.845 562.346V564.909C484.648 566.545 484.174 568.207 485.259 569.788C487.324 570.706 489.899 569.788 491.779 571.483C491.963 577.863 495.025 583.803 494.68 590.266L485.696 590.546C484.947 590.472 484.565 590.739 484.776 591.552C484.418 594.075 484.441 596.638 484.845 599.154C484.606 600.767 484.179 602.37 485.121 603.95C487.062 604.993 489.172 604.386 491.181 604.644C492.714 612.493 494.26 620.345 495.821 628.2L474.21 628.135C474.21 574.544 474.221 520.938 474.243 467.319L561.796 467.309Z" fill="#754C24"/>
<path id="Vector_65" d="M495.844 628.2C499.136 638.916 500.561 650.056 503.297 660.897C489.14 660.956 474.983 661.057 460.826 661.062C349.005 661.062 237.185 661.062 125.367 661.062C122.41 661.062 119.454 660.975 116.493 660.924L122.783 628.383C234.871 628.383 346.959 628.383 459.047 628.383C464.104 628.383 469.162 628.232 474.256 628.149L495.844 628.2Z" fill="#303032"/>
<path id="Vector_66" d="M568.32 440.01L562.044 440.713C538.298 440.691 514.549 440.664 490.8 440.63C488.321 440.63 485.714 441.149 483.549 439.321L483.411 406.444C484.271 405.912 484.459 405.043 484.56 404.148L568.178 404.019L568.32 440.01Z" fill="#754C24"/>
<path id="Vector_67" d="M142.848 394.786C140.512 392.333 139.855 389.219 139.386 386.031C246.471 386.031 353.558 386.031 460.647 386.031C462.748 386.031 464.854 386.247 466.955 386.361C467.353 389.039 467.353 391.76 466.955 394.437C465.056 394.317 463.162 394.097 461.267 394.097C357.192 394.079 253.118 394.079 149.046 394.097C146.982 394.088 144.825 393.725 142.848 394.786Z" fill="#BFC0BD"/>
<path id="Vector_68" d="M483.54 439.321C485.705 441.158 488.312 440.625 490.79 440.63C514.537 440.673 538.285 440.7 562.035 440.713L561.796 467.309H474.275V440.667L475.548 440.304C478.275 440.488 481.098 441.42 483.54 439.321Z" fill="#603813"/>
<path id="Vector_69" d="M475.548 440.331L474.275 440.694L468.155 440.593C468.02 428.093 467.885 415.596 467.75 403.105C467.833 400.183 468.596 397.198 466.978 394.428C467.376 391.751 467.376 389.029 466.978 386.352L468.27 381.713C470.697 381.223 473.196 381.214 475.627 381.685L475.548 440.331Z" fill="#4A545D"/>
<path id="Vector_70" d="M572.105 381.644L579.369 381.295V439.844C577.034 440.731 574.578 440.414 572.118 440.042L572.105 381.644Z" fill="#36394D"/>
<path id="Vector_71" d="M475.548 440.331L475.617 381.685L482.827 381.226L483.696 384.712L483.236 393.491C483.218 396.969 483.198 400.45 483.176 403.932L483.383 406.435L483.521 439.312C481.098 441.42 478.275 440.488 475.548 440.331Z" fill="#36394D"/>
<path id="Vector_72" d="M483.719 384.722L482.85 381.235L568.578 381.258L568.068 384.804L483.719 384.722Z" fill="#EBE2E7"/>
<path id="Vector_73" d="M568.045 384.804L568.555 381.258L572.105 381.644V440.042C570.873 440.489 569.521 440.477 568.297 440.01C568.251 428.011 568.204 416.011 568.155 404.01L568.242 393.978L568.045 384.804Z" fill="#4A545D"/>
<path id="Vector_74" d="M64.895 653.648V629.408C68.1779 627.488 71.4195 628.898 74.3759 628.158L101.081 628.388C101.081 639.293 101.655 650.217 99.8254 661.053H66.3158C64.6191 658.283 65.6997 655.821 64.895 653.648Z" fill="#303032"/>
<path id="Vector_75" d="M122.783 628.383C124.723 611.915 126.719 595.452 128.585 578.975C129.372 572.084 129.726 565.098 129.932 558.198C130.558 537.366 132.204 516.539 131.206 495.684C130.714 485.381 130.116 475.091 130.309 464.774C140.646 470.543 151.92 468.536 162.895 468.449C185.471 468.311 208.06 467.856 230.622 467.622C311.835 466.79 393.062 467.296 474.284 467.296C474.284 520.903 474.273 574.508 474.252 628.112C469.194 628.195 464.109 628.347 459.042 628.347C346.948 628.377 234.861 628.389 122.783 628.383ZM162.003 516.475L162.306 519.231L162.233 548.276C159.378 548.891 156.329 547.752 153.626 549.121C152.848 550.628 153.097 552.089 153.285 553.545C153.189 555.143 152.517 556.838 154.205 558.336L162.104 558.795L162.366 567.399C162.233 570.716 164.408 571.96 167.13 572.723C168.123 574.299 168.537 576.297 171.134 577.601H331.349C334.517 577.601 337.698 577.771 340.853 577.569C351.975 576.857 359.58 569.673 359.865 561.662C360.43 545.69 360.164 529.681 359.929 513.691C359.879 510.282 359.207 506.451 354.766 505.381C352.816 503.511 352.655 500.282 349.91 499.024C345.662 493.677 339.749 492.804 333.45 492.804C280.706 492.804 227.966 492.804 175.231 492.804C161.833 492.804 161.833 492.804 162.247 506.125L154.049 506.764C152.669 508.454 153.184 510.089 153.267 511.67C153.189 513.213 152.481 514.885 154.154 516.098C156.743 516.883 159.387 516.323 161.989 516.475H162.003Z" fill="#8C6239"/>
<path id="Vector_76" d="M484.85 559.939C485.861 560.738 485.875 561.537 484.85 562.346C484.85 561.542 484.85 560.738 484.85 559.939Z" fill="#2360AD"/>
<path id="Vector_77" d="M485.705 556.237C485.402 556.595 485.094 556.953 484.786 557.316C484.546 556.489 484.887 556.158 485.705 556.237Z" fill="#2360AD"/>
<path id="Vector_78" d="M485.701 590.546L484.781 591.552C484.57 590.739 484.951 590.472 485.701 590.546Z" fill="#2360AD"/>
<path id="Vector_79" d="M568.256 393.978L568.169 404.01L484.551 404.138L483.172 403.941C483.19 400.459 483.21 396.979 483.231 393.5C484.468 393.697 485.701 394.074 486.937 394.069C514.053 394.066 541.159 394.036 568.256 393.978Z" fill="#303032"/>
<path id="Vector_80" d="M483.195 403.941L484.574 404.139C484.473 405.057 484.284 405.912 483.425 406.435L483.195 403.941Z" fill="#9A1B34"/>
<path id="Vector_81" d="M151.883 427.621C151.887 427.295 151.91 426.97 151.952 426.647C153.216 426.73 154.485 426.877 155.75 426.877C232.915 426.877 310.08 426.866 387.246 426.845C389.085 426.845 391.08 427.304 392.676 425.926C393.411 424.497 393.31 423.032 393.099 421.553C393.223 419.683 393.646 417.786 392.547 415.962C390.151 414.897 387.586 415.411 385.094 415.411C308.814 415.377 232.535 415.377 156.255 415.411C153.957 415.411 151.612 415.526 149.29 415.59C147.556 411.456 145.027 407.588 145.731 402.802C148.49 402.834 151.221 402.898 153.97 402.898C256.044 402.898 358.107 402.898 460.159 402.898C462.693 402.898 465.217 403.054 467.75 403.133C467.888 415.627 468.023 428.123 468.155 440.621C466.891 440.648 465.626 440.699 464.357 440.699H152.697C151.009 440.699 149.322 440.602 147.639 440.547C149.478 438.747 152.384 438.71 154.232 436.317C154.13 433.276 153.326 430.3 151.883 427.621V427.621Z" fill="#8C6239"/>
<path id="Vector_82" d="M467.75 403.105C465.222 403.027 462.693 402.871 460.159 402.871C358.086 402.871 256.023 402.871 153.97 402.871C151.212 402.871 148.453 402.806 145.731 402.774C142.862 400.804 143.023 397.721 142.848 394.8C144.825 393.716 146.986 394.102 149.069 394.102C253.144 394.083 357.218 394.083 461.29 394.102C463.185 394.102 465.079 394.322 466.978 394.441C468.596 397.198 467.833 400.183 467.75 403.105Z" fill="#4D4C51"/>
<path id="Vector_83" d="M149.29 415.549C151.612 415.485 153.933 415.37 156.255 415.37C232.535 415.37 308.814 415.37 385.094 415.37C387.586 415.37 390.151 414.855 392.547 415.921C393.646 417.759 393.223 419.642 393.099 421.511L150.6 421.585C150.549 419.5 148.94 417.736 149.29 415.549Z" fill="#4D4C51"/>
<path id="Vector_84" d="M150.6 421.603L393.099 421.53C393.31 423.009 393.411 424.474 392.676 425.903C391.08 427.281 389.089 426.822 387.246 426.822C310.083 426.858 232.918 426.869 155.75 426.854C154.485 426.854 153.216 426.707 151.952 426.624L151.832 425.352C151.423 424.116 151.009 422.857 150.6 421.603Z" fill="#303032"/>
<path id="Vector_85" d="M147.634 440.52C149.322 440.575 151.009 440.671 152.692 440.671H464.352C465.621 440.671 466.886 440.621 468.15 440.593L474.27 440.694V467.337C393.048 467.337 311.821 466.832 230.608 467.663C208.046 467.897 185.457 468.352 162.881 468.49C151.929 468.559 140.632 470.566 130.296 464.815C128.985 458.6 128.981 452.275 128.65 445.981L147.634 440.52Z" fill="#754C24"/>
<path id="Vector_86" d="M101.081 628.388L74.3759 628.158L74.4034 451.429C79.0933 450.662 83.8016 450.97 88.5053 451.172C100.828 509.667 102.368 568.929 101.081 628.388Z" fill="#754C24"/>
<path id="Vector_87" d="M568.256 393.978C541.162 394.017 514.064 394.048 486.96 394.069C485.724 394.069 484.491 393.697 483.255 393.5L483.714 384.722L568.063 384.804C568.124 387.86 568.189 390.918 568.256 393.978Z" fill="#BFC0BD"/>
<path id="Vector_88" d="M162.251 506.13C161.837 492.808 161.837 492.808 175.236 492.808C227.958 492.808 280.698 492.808 333.454 492.808C339.754 492.808 345.666 493.681 349.915 499.028C350.912 502.243 351.369 505.6 351.267 508.964C351.179 522.051 351.267 535.147 351.225 548.23C351.189 559.503 343.51 567.459 332.273 567.468C275.642 567.505 219.008 567.485 162.371 567.408L162.109 558.804C164.153 558.293 166.284 558.236 168.353 558.639C168.546 559.792 168.215 561.101 169.594 562.208L172.279 562.346C176.882 562.789 181.516 562.789 186.119 562.346C186.738 562.468 187.365 562.549 187.995 562.589C236.947 562.608 285.903 562.608 334.861 562.589C342.568 562.589 345.896 559.098 345.961 551.207C346.067 538.767 345.961 526.328 345.988 513.888C345.988 511.734 345.777 509.685 344.512 507.862L343.556 505.432C343.531 505.086 343.387 504.759 343.148 504.508C342.909 504.257 342.59 504.096 342.246 504.054L342.273 504.081C340.995 498.307 336.36 499.028 332.231 499.028C279.852 499.001 227.473 499.001 175.093 499.028C173.056 499.028 170.877 498.422 169.185 499.611C167.585 501.945 169.3 503.865 169.429 505.9C167.056 506.727 164.656 506.438 162.251 506.13Z" fill="#EBE2E7"/>
<path id="Vector_89" d="M162.371 567.426C219.008 567.457 275.642 567.477 332.273 567.486C343.51 567.486 351.189 559.521 351.226 548.248C351.267 535.161 351.18 522.065 351.267 508.982C351.369 505.619 350.912 502.261 349.915 499.046C352.674 500.305 352.821 503.534 354.771 505.404C355.134 508.321 355.787 511.238 355.81 514.159C355.926 526.387 355.926 538.617 355.81 550.848C355.672 565.056 347.956 572.521 333.648 572.521C286.58 572.521 239.512 572.521 192.441 572.521C183.999 572.521 175.562 572.668 167.125 572.75C164.412 571.988 162.237 570.743 162.371 567.426Z" fill="#BFC0BD"/>
<path id="Vector_90" d="M167.134 572.75C175.571 572.668 184.008 572.525 192.45 572.521C239.521 572.502 286.589 572.502 333.657 572.521C347.965 572.521 355.681 565.056 355.819 550.848C355.938 538.62 355.938 526.391 355.819 514.159C355.819 511.238 355.143 508.321 354.78 505.404C359.221 506.474 359.892 510.305 359.943 513.714C360.178 529.704 360.444 545.713 359.879 561.684C359.594 569.696 351.989 576.88 340.866 577.592C337.712 577.794 334.53 577.624 331.362 577.624H171.139C168.541 576.324 168.127 574.326 167.134 572.75Z" fill="#754C24"/>
<path id="Vector_91" d="M162.219 548.299L162.293 519.254C163.258 518.482 163.24 517.444 163.083 516.364C164.737 515.798 166.527 515.773 168.196 516.291C168.236 526.972 168.276 537.651 168.316 548.327L162.219 548.299Z" fill="#EBE2E7"/>
<path id="Vector_92" d="M162.219 548.299L168.316 548.326H172.233H177.291C179.65 548.864 182.22 547.867 184.409 549.245C185.002 550.72 184.891 552.134 184.671 553.558C174.201 555.175 163.727 553.099 153.258 553.595C153.069 552.139 152.821 550.678 153.598 549.172C156.315 547.775 159.364 548.914 162.219 548.299Z" fill="#4D4C51"/>
<path id="Vector_93" d="M162.251 506.13C164.656 506.438 167.056 506.709 169.429 505.932L172.155 506.167C175.079 506.277 178.004 506.456 180.928 506.479C182.937 506.479 184.763 506.585 185.066 509.152L184.735 511.647H153.272C153.189 510.066 152.655 508.431 154.053 506.741L162.251 506.13Z" fill="#4D4C51"/>
<path id="Vector_94" d="M153.271 553.581C163.741 553.085 174.215 555.162 184.684 553.545L185.08 554.817L185.107 556.085C184.965 556.903 184.818 557.716 184.675 558.533L172.261 558.708L168.339 558.671C166.271 558.269 164.139 558.325 162.095 558.836L154.196 558.377C152.504 556.861 153.175 555.166 153.271 553.581Z" fill="#303032"/>
<path id="Vector_95" d="M153.262 511.67H184.726L184.947 515.625C180.689 516.254 176.339 515.129 172.109 516.305C170.84 515.875 169.465 515.875 168.196 516.305C166.527 515.786 164.737 515.812 163.083 516.378C162.913 516.276 162.715 516.232 162.518 516.252C162.321 516.272 162.135 516.355 161.989 516.488C159.387 516.337 156.743 516.897 154.173 516.112C152.476 514.89 153.184 513.213 153.262 511.67Z" fill="#303032"/>
<path id="Vector_96" d="M161.989 516.474C162.135 516.341 162.321 516.258 162.518 516.238C162.715 516.218 162.914 516.262 163.083 516.364C163.24 517.444 163.258 518.482 162.293 519.254L161.989 516.474Z" fill="#BFC0BD"/>
<path id="Vector_97" d="M184.947 515.602L184.726 511.647L185.057 509.152C186.081 508.427 187.108 507.702 188.137 506.98L188.179 507.898H344.508C345.772 509.736 345.988 511.771 345.984 513.925C345.956 526.365 346.062 538.804 345.956 551.243C345.892 559.135 342.563 562.617 334.857 562.626C285.901 562.681 236.946 562.681 187.99 562.626C187.36 562.586 186.734 562.505 186.114 562.383C186.114 560.927 186.399 559.351 184.671 558.533C184.813 557.716 184.96 556.903 185.103 556.085C185.25 555.961 185.563 555.791 185.517 555.713C185.392 555.401 185.238 555.101 185.057 554.817L184.661 553.545C184.882 552.121 184.993 550.706 184.399 549.231C182.211 547.853 179.641 548.85 177.282 548.313C176.468 539.383 177.631 530.476 177.282 522.304C179.677 518.114 183.36 522.028 185.618 519.8C186.547 518.165 185.462 516.934 184.947 515.602Z" fill="#8C6239"/>
<path id="Vector_98" d="M344.512 507.885H188.183L188.142 506.966C187.112 507.685 186.085 508.41 185.061 509.139C184.767 506.571 182.942 506.479 180.923 506.465C177.999 506.465 175.075 506.263 172.151 506.153C172.339 505.151 172.528 504.155 172.748 502.992C174.403 502.896 175.861 502.735 177.319 502.735C229.627 502.735 281.939 502.718 334.255 502.685C337.073 502.685 339.625 503.484 342.269 504.095L342.241 504.067C342.284 504.407 342.434 504.723 342.67 504.971C342.906 505.219 343.215 505.385 343.552 505.445L344.512 507.885Z" fill="#754C24"/>
<path id="Vector_99" d="M342.273 504.109C339.629 503.498 337.078 502.694 334.259 502.698C281.947 502.769 229.635 502.786 177.323 502.749C175.866 502.749 174.408 502.91 172.753 503.006C172.532 504.168 172.344 505.165 172.155 506.167L169.429 505.932C169.3 503.897 167.589 501.977 169.185 499.644C170.877 498.454 173.056 499.06 175.093 499.06C227.473 499.02 279.852 499.02 332.231 499.06C336.36 499.051 340.995 498.334 342.273 504.109Z" fill="#BFC0BD"/>
<path id="Vector_100" d="M184.675 558.52C186.404 559.337 186.096 560.913 186.119 562.369C181.516 562.812 176.882 562.812 172.279 562.369C172.279 561.147 172.279 559.921 172.279 558.694L184.675 558.52Z" fill="#754C24"/>
<path id="Vector_101" d="M172.275 558.694C172.275 559.916 172.275 561.143 172.275 562.369L169.589 562.231C168.21 561.124 168.541 559.815 168.348 558.662L172.275 558.694Z" fill="#BFC0BD"/>
<path id="Vector_102" d="M343.556 505.454C343.219 505.394 342.91 505.228 342.674 504.98C342.439 504.732 342.288 504.416 342.246 504.076C342.59 504.119 342.909 504.28 343.148 504.531C343.387 504.782 343.531 505.109 343.556 505.454V505.454Z" fill="#BFC0BD"/>
<path id="Vector_103" d="M168.196 516.291C169.465 515.861 170.84 515.861 172.109 516.291L172.233 548.317H168.316C168.279 537.645 168.239 526.969 168.196 516.291Z" fill="#BFC0BD"/>
<path id="Vector_104" d="M172.233 548.308L172.109 516.282C176.339 515.106 180.689 516.231 184.946 515.602C185.461 516.934 186.547 518.165 185.641 519.786C183.383 522.014 179.7 518.101 177.305 522.29C177.654 530.462 176.491 539.369 177.305 548.299L172.233 548.308Z" fill="#754C24"/>
<path id="Vector_105" d="M185.08 554.803C185.261 555.087 185.415 555.387 185.54 555.699C185.54 555.777 185.273 555.947 185.126 556.071L185.08 554.803Z" fill="#CF1F3B"/>
<path id="Vector_106" d="M101.081 628.383H124.787L125.868 661.053H95.255L97.5264 628.383H101.081Z" fill="#303032"/>
<path id="Vector_107" d="M74.3759 628.158L64.4214 628.379V661.071L74.3759 661.053V628.158Z" fill="#303032"/>
<path id="Vector_108" d="M495.844 628.195H561.888V555.814H481.264V628.135L495.844 628.195Z" fill="#754C24"/>
<path id="Vector_109" d="M474.243 628.135H577.332L579.493 661.071L219.886 661.053V628.383L474.243 628.135Z" fill="#303032"/>
<path id="Vector_110" d="M579.493 661.071V628.379H568.569L579.493 661.071Z" fill="#303032"/>
<path id="Vector_111" d="M124.787 628.383L74.3759 628.158L74.4034 468.857L141.243 468.361L136.48 628.383H124.787Z" fill="#8C6239"/>
<path id="Vector_112" d="M208.63 467.916L74.4034 468.857L74.3759 440.676H208.63V467.916Z" fill="#754C24"/>
<path id="Vector_113" d="M74.3759 440.676H64.895V426.913L160.348 426.877V440.671L74.3759 440.676Z" fill="#8C6239"/>
<path id="Vector_114" d="M158.108 415.37H132.144V421.718H158.108V415.37Z" fill="#4D4C51"/>
<path id="Vector_115" d="M160.348 421.599H132.144V426.877H160.348V421.599Z" fill="#303032"/>
<path id="Vector_116" d="M378.974 426.914H395.2V421.53H379.783L378.974 426.914Z" fill="#303032"/>
<path id="Vector_117" d="M368.316 421.534V415.379H395.2V421.53L368.316 421.534Z" fill="#4D4C51"/>
<path id="Vector_118" d="M64.895 426.914V415.264L132.144 415.37V426.877L64.895 426.914Z" fill="#8C6239"/>
<path id="Vector_119" d="M151.911 402.848H64.895V415.264H152.807L151.911 402.848Z" fill="#8C6239"/>
<path id="Vector_120" d="M156.743 394.083H64.895V402.848L159.515 402.857L156.743 394.083Z" fill="#4D4C51"/>
<path id="Vector_121" d="M139.386 386.031H64.895V394.083L151.511 394.019V386.017L139.386 386.031Z" fill="#BFC0BD"/>
<path id="Vector_122" d="M467.263 440.612L466.955 381.336L475.617 381.685L475.548 440.327L467.263 440.612Z" fill="#4A545D"/>
<path id="Vector_123" d="M475.617 381.685L483.696 381.295L484.551 440.52L475.548 440.327L475.617 381.685Z" fill="#36394D"/>
<path id="Vector_124" d="M466.955 381.336L64.4214 380.996L64.895 386.031L466.955 386.348V381.336Z" fill="#EBE2E7"/>
<path id="Vector_125" d="M69.4009 383.017V440.713L64.895 440.676L64.4214 380.996L69.4009 381.001V383.017Z" fill="#36394D"/>
</g>
<path id="Vector_126" d="M137.924 337.141L136.76 337.973C136.88 337.32 137.206 336.953 137.924 337.141Z" fill="#BFC0BD"/>
<path id="Vector_127" d="M252.163 299.896L223.656 300.158C224.599 290.006 228.456 280.406 229.634 270.3C227.964 269.629 226.709 267.769 225.036 269.735C211.895 269.707 198.745 269.276 185.572 269.988C182.969 280.461 180.514 290.337 178.073 300.213C172.647 300.213 167.217 300.365 161.805 300.154C151.887 299.777 150.83 297.646 148.857 291.288C150.467 287.815 154.55 286.832 156.49 283.695C160.076 281.398 162.739 278.082 165.58 275.013C181.921 257.369 194.276 236.298 212.612 220.349C216.787 220.349 220.502 223.161 224.567 222.596C227.597 219.711 226.525 215.476 228.898 212.692L254.531 212.899C258.324 216.725 259.423 221.259 259.345 226.679C259.074 246.276 259.12 265.876 259.308 285.477C259.341 291.692 257.534 296.571 252.163 299.896Z" fill="#D9DADF"/>
<path id="Vector_128" d="M193.434 212.839C190.846 219.04 186.078 223.57 181.19 227.796C170.394 237.125 160.224 247.19 148.94 255.917C148.94 245.375 148.844 234.828 148.894 224.286C148.926 216.344 152.522 212.761 160.504 212.738C171.479 212.738 182.454 212.802 193.434 212.839Z" fill="#D9DADF"/>
<path id="Vector_129" d="M252.163 299.896C257.534 296.571 259.355 291.692 259.295 285.491C259.106 265.89 259.06 246.289 259.332 226.693C259.41 221.291 258.311 216.757 254.518 212.912C264.481 212.577 268.003 215.88 268.022 225.774C268.058 245.426 268.058 265.077 268.022 284.728C268.035 297.145 264.513 300.503 252.163 299.896Z" fill="#989899"/>
<path id="Vector_130" d="M228.884 212.738H228.167L225.459 222.715L213.366 219.546L212.506 220.487L218.484 224.621C218.672 224.759 228.355 225.65 228.466 225.65C228.576 225.65 233.551 223.027 233.602 222.922C233.652 222.816 232.521 219.651 232.466 219.49C232.411 219.33 228.884 212.738 228.884 212.738Z" fill="#D9DADF"/>
<path id="Vector_131" d="M148.857 291.306L148.931 253.781L190.97 212.908H233.602L235.436 246.974L180.583 264.806L148.857 291.306Z" fill="#D9DADF"/>
<path id="Vector_132" d="M210.548 337.013H168.739L183.995 267.411L225.845 267.567L210.548 337.013Z" fill="#989899"/>
<path id="Vector_133" d="M225.845 267.567L229.928 269.432L216.479 331.505L241.997 332.332V336.829L210.548 337.013L225.845 267.567Z" fill="#ABA9AA"/>
<path id="Vector_134" d="M259.336 336.829H136.48V345.603H259.617L259.336 336.829Z" fill="#ABA9AA"/>
<path id="Vector_135" d="M136.48 345.603L135.119 380.996H260.076L259.617 345.603H136.48Z" fill="#D9DADF"/>
<path id="Vector_136" d="M259.617 345.603L260.076 380.996H296.285V345.258L259.617 345.603Z" fill="#BFC0BD"/>
<path id="Vector_137" d="M259.336 336.829H296.285V345.258H259.617L259.336 336.829Z" fill="#989899"/>
<path id="Vector_138" d="M295.572 345.258L259.617 345.603L259.571 343.843L295.572 345.258Z" fill="#989899"/>
</g>
<g id="empty basket">
<path id="Vector_139" d="M682.56 558.919H542.306C541.003 558.919 539.947 559.974 539.947 561.276V571.611C539.947 572.913 541.003 573.968 542.306 573.968H682.56C683.863 573.968 684.919 572.913 684.919 571.611V561.276C684.919 559.974 683.863 558.919 682.56 558.919Z" fill="#166BB3"/>
<path id="Vector_140" d="M545.722 571.928L557.828 629.936H666.495L679.144 571.928H545.722Z" fill="#2E9BD5"/>
<path id="Vector_141" d="M575.567 583.633C575.567 581.928 574.183 580.546 572.477 580.546C570.771 580.546 569.387 581.928 569.387 583.633V618.498C569.387 620.203 570.771 621.585 572.477 621.585C574.183 621.585 575.567 620.203 575.567 618.498V583.633Z" fill="#2360AD"/>
<path id="Vector_142" d="M585.195 583.545C585.195 581.841 583.812 580.458 582.105 580.458C580.399 580.458 579.015 581.841 579.015 583.545V618.411C579.015 620.116 580.399 621.498 582.105 621.498C583.812 621.498 585.195 620.116 585.195 618.411V583.545Z" fill="#2360AD"/>
<path id="Vector_143" d="M595.228 583.633C595.228 581.928 593.844 580.546 592.138 580.546C590.431 580.546 589.048 581.928 589.048 583.633V618.498C589.048 620.203 590.431 621.585 592.138 621.585C593.844 621.585 595.228 620.203 595.228 618.498V583.633Z" fill="#2360AD"/>
<path id="Vector_144" d="M604.897 583.49C604.897 581.785 603.514 580.403 601.807 580.403C600.101 580.403 598.717 581.785 598.717 583.49V618.356C598.717 620.06 600.101 621.442 601.807 621.442C603.514 621.442 604.897 620.06 604.897 618.356V583.49Z" fill="#2360AD"/>
<path id="Vector_145" d="M614.272 583.49C614.272 581.785 612.889 580.403 611.182 580.403C609.476 580.403 608.093 581.785 608.093 583.49V618.356C608.093 620.06 609.476 621.442 611.182 621.442C612.889 621.442 614.272 620.06 614.272 618.356V583.49Z" fill="#2360AD"/>
<path id="Vector_146" d="M623.987 583.49C623.987 581.785 622.604 580.403 620.898 580.403C619.191 580.403 617.808 581.785 617.808 583.49V618.356C617.808 620.06 619.191 621.442 620.898 621.442C622.604 621.442 623.987 620.06 623.987 618.356V583.49Z" fill="#2360AD"/>
<path id="Vector_147" d="M634.075 583.49C634.075 581.785 632.692 580.403 630.985 580.403C629.279 580.403 627.896 581.785 627.896 583.49V618.356C627.896 620.06 629.279 621.442 630.985 621.442C632.692 621.442 634.075 620.06 634.075 618.356V583.49Z" fill="#2360AD"/>
<path id="Vector_148" d="M644.595 583.49C644.595 581.785 643.212 580.403 641.505 580.403C639.799 580.403 638.416 581.785 638.416 583.49V618.356C638.416 620.06 639.799 621.442 641.505 621.442C643.212 621.442 644.595 620.06 644.595 618.356V583.49Z" fill="#2360AD"/>
<path id="Vector_149" d="M654.131 583.49C654.131 581.785 652.748 580.403 651.042 580.403C649.335 580.403 647.952 581.785 647.952 583.49V618.356C647.952 620.06 649.335 621.442 651.042 621.442C652.748 621.442 654.131 620.06 654.131 618.356V583.49Z" fill="#2360AD"/>
<path id="Vector_150" d="M545.722 606.348L557.943 664.907H667.649L680.422 606.348H545.722Z" fill="#2884C4"/>
<path id="Vector_151" d="M575.567 620.092C575.567 618.387 574.183 617.005 572.477 617.005C570.771 617.005 569.387 618.387 569.387 620.092V654.957C569.387 656.662 570.771 658.044 572.477 658.044C574.183 658.044 575.567 656.662 575.567 654.957V620.092Z" fill="#2360AD"/>
<path id="Vector_152" d="M585.195 620.005C585.195 618.3 583.812 616.918 582.105 616.918C580.399 616.918 579.015 618.3 579.015 620.005V654.87C579.015 656.575 580.399 657.957 582.105 657.957C583.812 657.957 585.195 656.575 585.195 654.87V620.005Z" fill="#2360AD"/>
<path id="Vector_153" d="M595.228 620.092C595.228 618.387 593.844 617.005 592.138 617.005C590.431 617.005 589.048 618.387 589.048 620.092V654.957C589.048 656.662 590.431 658.044 592.138 658.044C593.844 658.044 595.228 656.662 595.228 654.957V620.092Z" fill="#2360AD"/>
<path id="Vector_154" d="M604.897 619.949C604.897 618.245 603.514 616.863 601.807 616.863C600.101 616.863 598.717 618.245 598.717 619.949V654.815C598.717 656.52 600.101 657.902 601.807 657.902C603.514 657.902 604.897 656.52 604.897 654.815V619.949Z" fill="#2360AD"/>
<path id="Vector_155" d="M614.272 619.949C614.272 618.245 612.889 616.863 611.182 616.863C609.476 616.863 608.093 618.245 608.093 619.949V654.815C608.093 656.52 609.476 657.902 611.182 657.902C612.889 657.902 614.272 656.52 614.272 654.815V619.949Z" fill="#2360AD"/>
<path id="Vector_156" d="M623.987 619.949C623.987 618.245 622.604 616.863 620.898 616.863C619.191 616.863 617.808 618.245 617.808 619.949V654.815C617.808 656.52 619.191 657.902 620.898 657.902C622.604 657.902 623.987 656.52 623.987 654.815V619.949Z" fill="#2360AD"/>
<path id="Vector_157" d="M634.075 619.949C634.075 618.245 632.692 616.863 630.985 616.863C629.279 616.863 627.896 618.245 627.896 619.949V654.815C627.896 656.52 629.279 657.902 630.985 657.902C632.692 657.902 634.075 656.52 634.075 654.815V619.949Z" fill="#2360AD"/>
<path id="Vector_158" d="M644.595 619.949C644.595 618.245 643.212 616.863 641.505 616.863C639.799 616.863 638.416 618.245 638.416 619.949V654.815C638.416 656.52 639.799 657.902 641.505 657.902C643.212 657.902 644.595 656.52 644.595 654.815V619.949Z" fill="#2360AD"/>
<path id="Vector_159" d="M654.131 619.949C654.131 618.245 652.748 616.863 651.042 616.863C649.335 616.863 647.952 618.245 647.952 619.949V654.815C647.952 656.52 649.335 657.902 651.042 657.902C652.748 657.902 654.131 656.52 654.131 654.815V619.949Z" fill="#2360AD"/>
<path id="Vector_160" d="M683.48 592.443H542.306C541.003 592.443 539.947 593.498 539.947 594.8V605.232C539.947 606.533 541.003 607.588 542.306 607.588H683.48C684.783 607.588 685.839 606.533 685.839 605.232V594.8C685.839 593.498 684.783 592.443 683.48 592.443Z" fill="#166BB3"/>
<path id="Vector_161" d="M539.947 599.058H608.814V607.533H542.089C541.788 607.524 541.492 607.454 541.218 607.327C540.945 607.199 540.701 607.018 540.5 606.793C540.3 606.568 540.147 606.305 540.052 606.019C539.957 605.733 539.921 605.431 539.947 605.131V599.058Z" fill="#2360AD"/>
<path id="Vector_162" d="M683.503 599.058H619.192C617.902 599.058 616.856 600.103 616.856 601.391V605.199C616.856 606.488 617.902 607.533 619.192 607.533H683.503C684.793 607.533 685.839 606.488 685.839 605.199V601.391C685.839 600.103 684.793 599.058 683.503 599.058Z" fill="#2360AD"/>
<path id="Vector_163" d="M619.757 599.058H616.856V607.533H619.757V599.058Z" fill="#2360AD"/>
<path id="Vector_164" d="M539.947 565.451H608.378V573.926H542.076C541.775 573.917 541.48 573.846 541.207 573.719C540.935 573.591 540.692 573.409 540.492 573.184C540.293 572.959 540.142 572.696 540.048 572.41C539.954 572.125 539.92 571.823 539.947 571.524V565.451Z" fill="#2360AD"/>
<path id="Vector_165" d="M682.583 565.451H618.709C617.419 565.451 616.373 566.496 616.373 567.785V571.593C616.373 572.882 617.419 573.926 618.709 573.926H682.583C683.873 573.926 684.919 572.882 684.919 571.593V567.785C684.919 566.496 683.873 565.451 682.583 565.451Z" fill="#2360AD"/>
<path id="Vector_166" d="M619.256 565.451H616.373V573.926H619.256V565.451Z" fill="#2360AD"/>
<path id="Vector_167" d="M615.904 526.489H608.483C607.64 526.489 606.957 527.171 606.957 528.014V602.687C606.957 603.529 607.64 604.212 608.483 604.212H615.904C616.747 604.212 617.431 603.529 617.431 602.687V528.014C617.431 527.171 616.747 526.489 615.904 526.489Z" fill="#36394D"/>
<path id="Vector_168" d="M611.955 526.489H608.483C607.64 526.489 606.957 527.171 606.957 528.014V602.687C606.957 603.529 607.64 604.212 608.483 604.212H611.955C612.798 604.212 613.481 603.529 613.481 602.687V528.014C613.481 527.171 612.798 526.489 611.955 526.489Z" fill="#303032"/>
</g>
</g>
<g id="owner-forearm_2">
<path id="Vector_169" d="M184.546 233.409C184.546 233.409 169.465 248.329 174.431 254.167C175.162 255.026 195.853 281.729 196.846 282.551C199.605 284.885 204.258 292.496 205.881 289.469C209.872 282.027 214.221 261.953 214.221 261.953C214.221 261.953 192.528 230.497 191.632 227.093L184.546 233.409Z" fill="#F7B38F"/>
</g>
<g id="owner-body_2">
<path id="Vector_170" d="M0 414.966L0.0413812 414.943L0.0229896 414.768L0 414.966Z" fill="#2360AD"/>
<path id="Vector_171" d="M102.308 653.579C101.848 656.207 99.9218 658.283 99.8483 661.296C101.862 664.792 105.366 666.652 108.41 669.073C101.904 671.71 95.3009 672.946 88.7857 671.168C86.6385 668.55 85.7557 665.61 83.4751 663.818L83.1716 662.247C83.6314 659.992 84.2751 657.81 84.2567 655.426C84.0268 629.486 85.2361 603.569 85.8752 577.656C86.6523 546.232 86.6339 514.825 86.4683 483.415C86.4177 473.309 85.2223 463.249 85.5487 453.125C87.1041 453.206 88.6532 453.379 90.188 453.644C101.71 455.458 113.012 459.234 124.861 458.205C124.222 481.968 121.96 505.602 120.291 529.286C119.21 544.601 117.895 559.907 116.093 575.093C112.971 601.492 109.559 627.942 102.308 653.579Z" fill="#F9B693"/>
<path id="Vector_172" d="M84.3166 441.071C98.0183 444.635 111.858 447.208 125.992 447.667C125.618 451.342 125.244 455.002 124.87 458.646C113.021 459.675 101.72 455.89 90.1973 454.085C88.6625 453.82 87.1133 453.647 85.558 453.565C84.7994 449.44 84.0683 445.311 84.3166 441.071Z" fill="#F9B693"/>
<path id="Vector_173" d="M83.4751 663.8C85.774 665.61 86.6385 668.549 88.7857 671.149C95.3009 672.927 101.904 671.691 108.41 669.055C117.311 668.894 126.171 669.238 134.677 672.426C138.94 674.025 143.101 675.931 145.483 682.211C124.084 682.96 103.389 683.084 82.4911 680.906C81.5715 674.907 83.5027 669.404 83.4751 663.8Z" fill="#534741"/>
<g id="right leg">
<path id="Vector_174" d="M176.813 624.323C174.722 635.173 172.632 646.024 170.541 656.877C169.065 659.119 170.261 660.589 171.884 662.119C174.114 664.218 176.183 666.483 178.321 668.678C171.967 671.503 165.47 672.174 159.207 670.442C156.83 668.072 156.334 665.068 153.929 663.483C153.911 661.318 153.891 659.154 153.869 656.992C155.708 646.16 155.124 635.232 155.124 624.327C156.412 564.868 154.867 505.611 142.549 447.111C156.085 446.556 169.396 444.291 182.689 441.875C183.024 448.173 183.029 454.503 184.34 460.708C184.146 471.03 184.744 481.315 185.259 491.623C186.252 512.474 184.606 533.305 183.981 554.137C183.774 561.028 183.42 568.01 182.638 574.909C180.749 591.405 178.758 607.868 176.813 624.323Z" fill="#F7B38F"/>
<path id="Vector_175" d="M153.934 663.497C156.338 665.081 156.835 668.09 159.212 670.456C165.474 672.188 171.971 671.517 178.325 668.692C185.917 668.761 193.563 668.15 201.03 670.07C207.389 671.715 213.647 673.58 217.468 680.736C195.614 683.644 174.371 681.733 152.899 680.346C152.294 674.711 152.644 669.015 153.934 663.497Z" fill="#534741"/>
</g>
<path id="Vector_176" d="M68.9871 179.053C68.9871 179.053 73.1528 170.679 81.7555 175.002" stroke="#855843" stroke-miterlimit="10"/>
<path id="Vector_177" d="M92.6709 65.8444C106.924 61.6321 121.178 61.3427 135.813 64.5765C153.12 68.3984 164.026 78.7477 170.633 94.5818C173.663 101.84 175.084 109.493 176.44 117.288C179.811 119.856 183.498 121.932 186.556 124.89C195.853 133.93 197.995 144.183 192.533 155.984C190.51 160.371 187.894 164.496 185.448 168.676C184.068 171.037 182.477 173.27 182.289 176.811C192.804 188.507 197.89 201.741 189.245 217.235C182.096 205.333 171.672 198.64 157.768 197.483C150.844 195.673 143.634 197.322 136.448 196.242C136.719 192.145 136.94 188.589 137.211 185.034C137.305 184.44 137.459 183.856 137.671 183.293C164.067 169.926 173.18 154.124 169.856 127.123C162.83 121.964 159.667 113.884 156.554 105.662C137.703 123.48 113.467 125.023 90.8915 130.177C89.4386 135.575 88.9374 140.844 85.5441 145.359C81.8934 142.69 81.5026 137.977 78.045 135.869C71.355 136.507 68.8169 140.398 70.1181 147.84C71.5803 156.195 77.3139 159.921 85.751 157.803C89.0248 163.352 92.1881 169.085 97.1769 173.486C102.166 177.886 108 180.642 113.932 182.967C114.686 188.3 113.339 192.985 113.072 197.666C106.028 200.211 98.9149 201.589 92.6617 205.246C82.3302 206.941 76.2288 214.208 70.8124 222.155C65.5432 229.876 63.1431 239.004 59.074 247.323C57.2348 246.864 55.3956 246.404 53.5565 246C35.0039 241.866 27.7852 223.854 38.3512 208.066C43.2387 200.84 43.2387 196.619 37.7212 189.113C33.8498 183.826 29.8082 178.686 28.2771 172.149C24.9528 157.941 31.8359 142.139 45.1377 133.563C48.164 131.649 51.2871 129.892 54.4944 128.299C62.4304 124.275 66.0168 117.986 66.2329 109.006C66.5042 97.7927 68.679 86.883 75.0655 77.2594C76.7667 77.875 78.7438 78.0128 79.599 79.965C73.3873 94.7334 71.5251 123.457 76.523 126.631C77.7047 126.071 77.5944 124.968 77.6679 123.935C78.2197 115.914 80.0726 108.156 82.6337 100.572C89.8984 79.0371 104.745 68.6556 127.422 68.7567C131.689 68.7797 135.652 70.7687 139.933 70.0796C140.301 70.9616 140.724 71.6277 141.772 70.392L139.882 70.1486C135.643 66.1062 130.176 65.5871 124.783 65.0589C113.536 63.961 102.607 65.7112 91.8893 69.0645L91.5536 68.7337C91.3927 67.5807 92.1008 66.7355 92.6709 65.8444Z" fill="#513D35"/>
<path id="Vector_178" d="M92.671 65.8444C92.1008 66.7355 91.3927 67.5716 91.5445 68.7429L90.9054 69.7122L91.8801 69.0737C102.598 65.7203 113.527 63.9702 124.774 65.0681C130.167 65.5963 135.634 66.1154 139.873 70.1577L139.938 70.0888C135.657 70.7779 131.693 68.7888 127.427 68.7659C104.75 68.6648 89.903 79.0463 82.6383 100.581C80.0773 108.165 78.2243 115.924 77.6726 123.944C77.599 124.978 77.7093 126.08 76.5277 126.64C71.5297 123.466 73.3919 94.7426 79.6037 79.9742C78.7715 78.022 76.7714 77.8841 75.0701 77.2686C70.1734 73.1344 64.6605 69.386 64.0352 61.6504C71.447 61.779 76.1691 66.0832 81.0474 71.8757C81.5532 63.1709 84.5648 57.089 91.0295 52.8032C94.1009 57.0477 92.625 61.5356 92.671 65.8444Z" fill="#EFB1EF"/>
<path id="Vector_179" d="M157.768 197.51C155.428 214.901 148.191 223.303 132.815 227.667C120.824 231.071 106.478 225.338 98.2022 213.666C96.2665 210.942 94.5239 208.089 92.6847 205.292C98.9379 201.617 106.051 200.239 113.095 197.712C113.362 193.013 114.709 188.328 113.955 183.013C108.023 180.688 102.152 177.9 97.1998 173.532C92.2479 169.163 89.0478 163.398 85.774 157.849C77.3277 159.967 71.5941 156.241 70.1411 147.886C68.8399 140.444 71.378 136.553 78.0679 135.915C81.5256 138.023 81.9164 142.736 85.5671 145.405C88.9604 140.89 89.4616 135.621 90.9145 130.223C113.49 125.069 137.707 123.526 156.577 105.707C159.69 113.93 162.853 122.01 169.879 127.169C173.208 154.17 164.095 169.972 137.694 183.339C137.482 183.902 137.328 184.486 137.234 185.08C136.963 188.635 136.742 192.191 136.471 196.288C143.634 197.349 150.83 195.7 157.768 197.51ZM147.519 129.723C150.044 128.404 152.499 126.967 155.437 126.53C149.57 125.786 149.57 125.786 147.533 129.746C146.503 129.994 146.204 130.49 147.073 131.51C147.257 130.821 147.391 130.269 147.519 129.723ZM144.604 164.046C140.554 164.046 137.004 163.954 133.459 164.073C129.781 164.193 126.061 163.527 122.373 164.565C124.461 171.29 129.068 174.643 134.857 174.051C140.549 173.463 144.191 170.018 144.604 164.046ZM120.737 146.195C125.394 142.061 125.417 141.813 121.606 137.297C119.169 136.879 117.495 137.807 117.09 140.32C116.658 142.998 117.09 145.364 120.737 146.195V146.195ZM155.681 142.429C158.899 141.45 159.414 139.268 159.065 136.82C158.715 134.371 157.189 133.172 154.614 133.774C151.428 138.405 151.46 138.712 155.667 142.429H155.681ZM111.223 133.898C114.253 131.992 117.743 131.344 121.049 130.2C117.1 129.594 113.15 128.85 111.21 133.898H111.223Z" fill="#F7B38F"/>
<path id="Vector_180" d="M91.88 69.0737L90.9053 69.7122L91.5444 68.7429L91.88 69.0737Z" fill="#5A4B44"/>
<path id="Vector_181" d="M144.604 164.046C144.191 170.018 140.549 173.463 134.857 174.051C129.068 174.643 124.461 171.295 122.374 164.565C126.052 163.527 129.804 164.193 133.459 164.073C137.004 163.954 140.554 164.046 144.604 164.046Z" fill="#FDFDFD"/>
<path id="Vector_182" d="M120.737 146.195C117.09 145.364 116.658 142.98 117.09 140.32C117.495 137.807 119.169 136.879 121.606 137.297C125.417 141.813 125.394 142.066 120.737 146.195Z" fill="#5A4B44"/>
<path id="Vector_183" d="M155.667 142.429C151.46 138.712 151.428 138.405 154.6 133.774C157.175 133.172 158.692 134.335 159.051 136.82C159.41 139.305 158.89 141.45 155.667 142.429Z" fill="#5A4B44"/>
<path id="Vector_184" d="M142.025 70.8652C142.086 70.8652 142.144 70.8409 142.188 70.7979C142.231 70.7548 142.255 70.6964 142.255 70.6355C142.255 70.5746 142.231 70.5161 142.188 70.4731C142.144 70.43 142.086 70.4058 142.025 70.4058C141.964 70.4058 141.906 70.43 141.862 70.4731C141.819 70.5161 141.795 70.5746 141.795 70.6355C141.795 70.6964 141.819 70.7548 141.862 70.7979C141.906 70.8409 141.964 70.8652 142.025 70.8652Z" fill="#5A4B44"/>
<path id="Vector_185" d="M141.79 70.8835C141.851 70.8835 141.91 70.8593 141.953 70.8162C141.996 70.7732 142.02 70.7148 142.02 70.6538C142.02 70.5929 141.996 70.5345 141.953 70.4914C141.91 70.4484 141.851 70.4242 141.79 70.4242C141.729 70.4242 141.671 70.4484 141.628 70.4914C141.585 70.5345 141.561 70.5929 141.561 70.6538C141.561 70.7148 141.585 70.7732 141.628 70.8162C141.671 70.8593 141.729 70.8835 141.79 70.8835Z" fill="#5A4B44"/>
<path id="Vector_186" d="M141.455 70.957C141.516 70.957 141.574 70.9328 141.617 70.8897C141.66 70.8467 141.685 70.7882 141.685 70.7273C141.685 70.6664 141.66 70.608 141.617 70.5649C141.574 70.5219 141.516 70.4977 141.455 70.4977C141.394 70.4977 141.335 70.5219 141.292 70.5649C141.249 70.608 141.225 70.6664 141.225 70.7273C141.225 70.7882 141.249 70.8467 141.292 70.8897C141.335 70.9328 141.394 70.957 141.455 70.957Z" fill="#5A4B44"/>
<path id="Vector_187" d="M141.22 71.0443C141.281 71.0443 141.34 71.0201 141.383 70.977C141.426 70.9339 141.45 70.8755 141.45 70.8146C141.45 70.7537 141.426 70.6953 141.383 70.6522C141.34 70.6091 141.281 70.5849 141.22 70.5849C141.159 70.5849 141.101 70.6091 141.058 70.6522C141.015 70.6953 140.99 70.7537 140.99 70.8146C140.99 70.8755 141.015 70.9339 141.058 70.977C141.101 71.0201 141.159 71.0443 141.22 71.0443Z" fill="#5A4B44"/>
<path id="Vector_188" d="M141.124 71.0443C141.185 71.0443 141.243 71.0201 141.286 70.977C141.329 70.9339 141.354 70.8755 141.354 70.8146C141.354 70.7537 141.329 70.6953 141.286 70.6522C141.243 70.6091 141.185 70.5849 141.124 70.5849C141.063 70.5849 141.004 70.6091 140.961 70.6522C140.918 70.6953 140.894 70.7537 140.894 70.8146C140.894 70.8755 140.918 70.9339 140.961 70.977C141.004 71.0201 141.063 71.0443 141.124 71.0443Z" fill="#5A4B44"/>
<path id="Vector_189" d="M140.843 70.8835C140.904 70.8835 140.963 70.8593 141.006 70.8162C141.049 70.7732 141.073 70.7148 141.073 70.6538C141.073 70.5929 141.049 70.5345 141.006 70.4914C140.963 70.4484 140.904 70.4242 140.843 70.4242C140.782 70.4242 140.724 70.4484 140.681 70.4914C140.638 70.5345 140.613 70.5929 140.613 70.6538C140.613 70.7148 140.638 70.7732 140.681 70.8162C140.724 70.8593 140.782 70.8835 140.843 70.8835Z" fill="#5A4B44"/>
<path id="Vector_190" d="M140.82 70.3966H140.797C140.767 70.3874 140.735 70.3874 140.705 70.3966C140.675 70.3959 140.646 70.4056 140.623 70.4242C140.595 70.4362 140.572 70.4573 140.558 70.4839C140.535 70.5037 140.52 70.5316 140.517 70.562V70.6217C140.516 70.6623 140.527 70.7023 140.549 70.7365L140.581 70.7825C140.609 70.8115 140.644 70.8322 140.682 70.8422H140.715C140.745 70.8514 140.777 70.8514 140.807 70.8422C140.838 70.8422 140.868 70.8326 140.894 70.8146C140.92 70.7998 140.942 70.7794 140.958 70.7549C140.978 70.7327 140.993 70.7059 141 70.6768V70.6171C141 70.5772 140.99 70.5378 140.972 70.5023L140.935 70.4563C140.907 70.4289 140.872 70.4085 140.834 70.3966H140.82Z" fill="#5A4B44"/>
<path id="Vector_191" d="M140.586 70.7595C140.647 70.7595 140.705 70.7353 140.748 70.6922C140.792 70.6492 140.816 70.5907 140.816 70.5298C140.816 70.4689 140.792 70.4105 140.748 70.3674C140.705 70.3243 140.647 70.3001 140.586 70.3001C140.525 70.3001 140.466 70.3243 140.423 70.3674C140.38 70.4105 140.356 70.4689 140.356 70.5298C140.356 70.5907 140.38 70.6492 140.423 70.6922C140.466 70.7353 140.525 70.7595 140.586 70.7595Z" fill="#5A4B44"/>
<path id="Vector_192" d="M140.535 70.7181C140.596 70.7181 140.655 70.6939 140.698 70.6509C140.741 70.6078 140.765 70.5494 140.765 70.4884C140.765 70.4275 140.741 70.3691 140.698 70.326C140.655 70.283 140.596 70.2588 140.535 70.2588C140.474 70.2588 140.416 70.283 140.373 70.326C140.33 70.3691 140.305 70.4275 140.305 70.4884C140.305 70.5494 140.33 70.6078 140.373 70.6509C140.416 70.6939 140.474 70.7181 140.535 70.7181Z" fill="#5A4B44"/>
<path id="Vector_193" d="M140.429 70.5666C140.49 70.5666 140.549 70.5424 140.592 70.4993C140.635 70.4562 140.659 70.3978 140.659 70.3369C140.659 70.276 140.635 70.2176 140.592 70.1745C140.549 70.1314 140.49 70.1072 140.429 70.1072C140.369 70.1072 140.31 70.1314 140.267 70.1745C140.224 70.2176 140.2 70.276 140.2 70.3369C140.2 70.3978 140.224 70.4562 140.267 70.4993C140.31 70.5424 140.369 70.5666 140.429 70.5666Z" fill="#5A4B44"/>
<path id="Vector_194" d="M140.416 70.4976C140.477 70.4976 140.535 70.4734 140.578 70.4304C140.621 70.3873 140.646 70.3289 140.646 70.2679C140.646 70.207 140.621 70.1486 140.578 70.1055C140.535 70.0625 140.477 70.0383 140.416 70.0383C140.355 70.0383 140.296 70.0625 140.253 70.1055C140.21 70.1486 140.186 70.207 140.186 70.2679C140.186 70.3289 140.21 70.3873 140.253 70.4304C140.296 70.4734 140.355 70.4976 140.416 70.4976Z" fill="#5A4B44"/>
<path id="Vector_195" d="M82.2199 153.977C82.2199 153.977 65.9755 150.679 76.7346 142.268C76.7346 142.268 82.0774 148.846 82.2199 153.977Z" fill="#F79C7D"/>
<path id="Vector_196" d="M134.176 153.839C134.176 153.839 138.347 148.515 141.588 153.839H134.176Z" fill="#F89F7D"/>
<path id="Vector_197" d="M109.159 157.44C113.004 157.44 116.12 156.293 116.12 154.877C116.12 153.461 113.004 152.314 109.159 152.314C105.315 152.314 102.198 153.461 102.198 154.877C102.198 156.293 105.315 157.44 109.159 157.44Z" fill="#F59F7C"/>
<path id="Vector_198" d="M161.148 153.003C164.22 153.003 166.711 152.086 166.711 150.954C166.711 149.823 164.22 148.905 161.148 148.905C158.075 148.905 155.584 149.823 155.584 150.954C155.584 152.086 158.075 153.003 161.148 153.003Z" fill="#F59F7C"/>
<path id="Vector_199" d="M145.676 161.951L116.12 161.464C116.12 161.464 122.783 175.989 122.957 176.38C123.132 176.77 143.648 174.597 143.648 174.597L145.676 161.951Z" fill="#F7B38F"/>
<path id="Vector_200" d="M120.654 146.237C122.866 146.237 124.659 144.205 124.659 141.698C124.659 139.192 122.866 137.16 120.654 137.16C118.442 137.16 116.649 139.192 116.649 141.698C116.649 144.205 118.442 146.237 120.654 146.237Z" fill="#4E453C"/>
<path id="Vector_201" d="M155.745 142.727C157.957 142.727 159.75 140.695 159.75 138.189C159.75 135.682 157.957 133.65 155.745 133.65C153.533 133.65 151.74 135.682 151.74 138.189C151.74 140.695 153.533 142.727 155.745 142.727Z" fill="#4E453C"/>
<path id="Vector_202" d="M113.945 135.465C116.558 134.742 119.229 134.249 121.927 133.99C123.413 133.852 124.686 132.819 124.686 131.234C124.686 129.856 123.417 128.34 121.927 128.478C118.735 128.758 115.573 129.318 112.479 130.15C109.053 131.069 110.506 136.402 113.945 135.465V135.465Z" fill="#F7B38F"/>
<path id="Vector_203" d="M145.712 132.722C147.418 132.369 148.811 131.496 150.283 130.605C151.844 129.616 153.674 129.135 155.52 129.227C159.074 129.36 159.069 123.847 155.52 123.714C153.409 123.619 151.305 124.007 149.368 124.849C147.621 125.616 146.149 126.999 144.246 127.389C140.77 128.106 142.241 133.421 145.712 132.704V132.722Z" fill="#F7B38F"/>
<path id="Vector_204" d="M111.706 136.806C114.207 134.096 117.684 133.062 121.252 132.699C124.86 132.28 128.517 132.778 131.882 134.146C132.305 134.325 131.841 133.77 131.762 133.687C131.445 133.263 131.042 132.909 130.581 132.649C127.15 131.222 123.413 130.689 119.72 131.101C116.093 131.468 112.584 132.479 110.065 135.235C109.872 135.446 111.545 137.022 111.725 136.829L111.706 136.806Z" fill="#F7B38F"/>
<g id="skirt">
<path id="Vector_205" d="M181.926 350.472L179.921 344.114L97.0987 344.514L56.3152 430.506C56.3152 430.506 143.142 473.984 210.345 430.506L181.926 350.472Z" fill="#93278F"/>
<path id="Vector_206" d="M61.5522 419.49C61.5522 419.49 142.526 452.174 205.586 417.12L207.122 421.438C207.122 421.438 156.77 462.036 59.9521 422.862L61.5522 419.49Z" fill="#9E005D"/>
<path id="Vector_207" d="M56.3152 430.524C56.3152 430.524 137.763 475.417 210.345 430.524L207.127 421.438C207.127 421.438 155.046 458.577 59.9567 422.862L56.3152 430.524Z" fill="#662D91"/>
</g>
<path id="Vector_208" d="M63.6489 269.239C63.6489 269.239 56.4072 283.162 54.4531 300.016C53.368 304.913 51.4231 312.768 54.4531 313.199L89.0662 292.956C89.0662 292.956 89.4432 293.295 91.5812 280.769" fill="#F7B38F"/>
<g id="tops">
<path id="Vector_209" d="M148.503 343.609L96.7584 344.114C96.7584 344.114 103.375 302.772 98.7999 289.726C94.225 276.68 170.256 284.411 170.256 284.411L179.581 343.719L148.503 343.609Z" fill="#29ABE2"/>
<path id="Vector_210" d="M154.803 317.012C161.014 317.683 167.18 319.065 172.863 317.972C175.562 319.442 176.049 321.514 176.666 323.512C177.512 330.187 179.047 336.778 179.167 343.549C168.946 344.133 158.725 344.009 148.503 343.6C149.188 340.15 145.855 338.675 144.908 336.507C143.988 332.52 146.747 330.848 148.765 328.868C152.117 325.575 154.609 321.9 154.803 317.012Z" fill="#29ABE2"/>
<path id="Vector_211" d="M58.7475 246.969C62.8166 238.65 65.2167 229.514 70.486 221.801C75.9069 213.854 82.0037 206.592 92.3352 204.897C94.1744 207.689 95.9262 210.542 97.8527 213.271C106.129 224.938 120.474 230.671 132.47 227.267C147.846 222.908 155.065 214.502 157.419 197.11C171.327 198.254 181.746 204.947 188.896 216.863C191.195 222.835 194.639 228.287 196.322 234.622C195.54 237.222 193.379 238.944 191.724 241.011C189.616 243.326 187.308 245.45 184.827 247.36C182.813 248.88 179.838 250.185 180.514 253.703C181.604 259.772 181.751 265.729 178.965 271.485C177.967 273.552 176.551 275.468 176.293 277.856L170.233 284.439C169.525 287.333 171.153 289.35 171.419 291.623C169.663 292.28 167.884 292.877 166.15 293.599C158.449 296.787 150.977 301.187 142.131 299.111C136.949 297.907 131.721 298.004 126.498 298.031L121.486 296.268L115.509 297.016L106.704 296.851C106.129 295.216 107.076 293.231 105.596 291.798C104.257 291.367 102.826 291.311 101.457 291.637L99.9126 291.123C97.8665 288.592 95.8021 286.07 92.8686 284.095H86.3442C76.2793 282.101 66.8996 278.394 58.4118 272.569C57.0968 270.41 54.2737 269.574 53.2714 266.363C54.991 260.254 56.8669 253.621 58.7475 246.969Z" fill="#29ABE2"/>
<path id="Vector_212" d="M92.5514 283.58C92.5514 283.58 99.3471 289.644 99.7103 291.706C100.074 293.769 104.809 291.706 104.809 291.706C104.809 291.706 101.292 282.004 98.6804 282.004C98.6804 282.004 103.839 244.415 93.402 227.681C93.402 227.681 97.4068 273.883 92.5514 283.58Z" fill="#0071BC"/>
<path id="Vector_213" d="M146.425 221.323C146.864 220.833 147.236 220.288 147.533 219.702C123.348 238.342 104.92 221.167 102.671 218.902C119.371 236.537 135.657 229.978 145.942 222.008C146.099 221.773 146.255 221.544 146.425 221.323Z" fill="#0071BC"/>
<path id="Vector_214" d="M187.278 243.382C187.101 243.362 186.926 243.333 186.753 243.294C183.71 246.583 180.537 249.597 180.496 249.045C180.408 247.989 169.199 235.426 169.199 235.426C168.739 231.797 164.168 221.121 164.168 221.121L166.224 235.104L180.882 251.126C183.658 248.773 186.269 246.233 188.698 243.524L187.278 243.382Z" fill="#0071BC"/>
<path id="Vector_215" d="M176.316 277.847C176.316 277.847 186.128 267.282 180.647 251.149C180.647 251.149 171.199 268.706 176.316 277.847Z" fill="#29ABE2"/>
</g>
<path id="Vector_216" d="M89.0754 292.96C89.0754 292.96 100.621 292.629 111.973 293.516C123.325 294.402 133.229 294.687 133.229 294.687C133.229 294.687 151.331 296.984 154.38 296.309C157.428 295.634 163.791 289.308 169.47 288.367C175.148 287.425 177.668 284.889 177.668 284.889C177.668 284.889 183.185 284.889 181.273 287.586C179.36 290.282 173.691 292.211 173.364 292.776C173.038 293.341 176.827 295.992 177.231 295.992C177.636 295.992 194.887 297.664 195.03 298.638C195.172 299.612 197.499 300.356 193.623 300.374C189.747 300.393 178.882 299.511 178.394 299.722C177.907 299.933 193.076 303.259 194.055 304.15C195.034 305.041 195.756 305.014 194.055 305.827C192.354 306.64 186.593 305.367 178.316 303.594C178.316 303.594 192.179 309.736 193.784 311.863C195.388 313.99 194.533 313.916 191.687 313.108C188.841 312.299 178.477 307.462 178.073 307.462C177.668 307.462 183.802 312.056 185.213 313.135C186.372 314.026 187.328 315.749 186.625 316.351C185.563 317.269 177.935 310.641 174.67 309.869C173.447 309.575 171.957 309.796 170.56 309.763C168.343 309.708 166.343 310.356 164.826 310.085C161.212 309.442 155.414 310.949 155.414 310.949C155.414 310.949 104.621 323.489 54.4255 313.218C54.4623 313.204 87.2362 292.492 89.0754 292.96Z" fill="#F7B38F"/>
<g id="Basket">
<path id="Vector_217" d="M99.4389 321.992C99.5171 324.201 98.0595 325.464 96.4365 326.452C91.8018 329.263 83.1761 328.919 79.1897 325.391L99.4849 322.065L99.4389 321.992Z" fill="#F7B38F"/>
<path id="Vector_218" d="M61.9154 326.287L56.4945 336.02L61.4281 339.677L67.8376 339.006L71.4377 340.159L72.7573 341.059L73.9758 340.628L71.5619 322.272L61.9154 326.287Z" fill="#B07037"/>
<path id="Vector_219" d="M173.088 314.408C172.9 319.309 170.403 322.984 167.051 326.264C165.042 328.243 162.288 329.938 163.194 333.903C164.145 336.071 167.479 337.545 166.789 340.995H131.105C129.132 340.426 127.808 337.371 124.838 337.247L124.893 318.17C126.732 318.17 127.652 317.187 127.477 315.414C126.695 307.522 129.316 300.682 133.818 294.393L139.795 293.645L144.807 295.408C147.041 300.461 147.05 305.344 144.779 310.489C143.625 313.094 141.974 316.502 146.292 318.381C148.549 319.364 150.917 323.337 152.94 318.128C153.989 317.132 155.239 316.291 156.062 315.12C159.543 310.158 164.067 308.16 169.746 309.607C171.695 310.898 172.15 312.814 173.088 314.408Z" fill="#9EAA39"/>
<path id="Vector_220" d="M72.7573 341.059C64.3043 341.496 55.8344 341.496 47.3814 341.059C44.0249 331.992 40.2087 323.062 39.2845 313.287C39.2845 313.08 39.1879 312.873 39.165 312.667C38.4247 305.551 38.204 298.174 45.0181 293.893C51.8322 289.611 57.929 293.718 63.7178 297.329C65.1386 298.22 66.426 299.327 67.7778 300.337C69.0606 302.12 71.0193 303.066 72.7343 304.315C71.0101 310.668 71.686 317.219 71.4331 322.942C67.7226 330.655 59.221 330.292 53.4139 334.826C56.2002 336.241 58.0992 337.081 59.7176 337.219C64.0489 337.182 66.8858 334.004 70.6745 333.65C71.8331 336.181 72.8998 338.446 72.7573 341.059ZM65.534 308.546L47.455 317.554C55.2714 320.742 60.8027 318.05 65.534 308.546Z" fill="#B07037"/>
<path id="Vector_221" d="M102.713 308.234C102.018 306.502 100.754 304.991 100.708 303.011C99.2459 300.976 97.8252 298.909 96.3125 296.911C92.4732 291.858 87.8201 288.693 81.0474 290.709C76.0403 293.847 74.5229 299.157 72.7344 304.306C71.0285 310.595 71.6676 317.067 71.4377 322.749C71.4745 322.984 71.4975 323.209 71.5251 323.461C71.8696 324.61 72.0051 325.811 71.9251 327.008C71.9251 329.213 72.4585 331.367 72.5964 333.558C72.5964 333.586 72.5964 333.604 72.5964 333.627C72.7436 334.665 72.9229 335.703 72.9964 336.751C73.0054 336.935 72.9788 337.119 72.9183 337.293C72.9183 337.316 72.9643 337.329 72.978 337.357C73.1068 337.556 73.1799 337.786 73.1896 338.023C73.2081 338.117 73.2173 338.212 73.2171 338.308V338.28C73.2195 338.303 73.2195 338.326 73.2171 338.349C73.2195 338.364 73.2195 338.38 73.2171 338.395C73.2171 338.455 73.2171 338.519 73.2171 338.579C73.2306 338.646 73.249 338.712 73.2723 338.776C73.3447 338.969 73.385 339.172 73.3919 339.378C73.3689 339.539 73.3459 339.695 73.3275 339.838C73.245 340.136 73.0866 340.408 72.8677 340.628L72.7757 340.701C72.7757 340.811 72.7757 340.926 72.7757 341.041C85.5441 341.101 98.3126 341.799 111.067 340.692C110.368 329.346 106.888 318.698 102.713 308.234ZM96.4366 326.452C91.8019 329.263 83.1762 328.919 79.1898 325.391L99.4206 322.047C99.4896 324.224 98.0505 325.473 96.4366 326.452Z" fill="#E18444"/>
<path id="Vector_222" d="M111.049 340.71C110.377 329.346 106.888 318.698 102.708 308.234C102.018 306.502 100.754 304.991 100.708 303.011C105.384 297.558 109.605 297.522 113.918 302.928C114.939 304.21 115.348 305.983 117.003 306.755V337.164C114.506 337.513 113.155 339.737 111.049 340.71Z" fill="#9EAA39"/>
<path id="Vector_223" d="M65.534 308.546C60.8027 318.05 55.2714 320.742 47.455 317.554L65.534 308.546Z" fill="#E18444"/>
<path id="Vector_224" d="M96.7308 306.272C89.2914 313.847 83.1946 314.697 76.7483 309.249L96.7308 306.272Z" fill="#F7B38F"/>
<path id="Vector_225" d="M70.8261 325.106C65.3086 337.215 58.8946 340.641 49.8091 336.59L70.8261 325.106Z" fill="#E18444"/>
<path id="Vector_226" d="M199.457 347.284C198.276 348.377 198.777 349.87 198.538 351.188C192.961 352.658 187.397 350.977 181.806 351.083C166.086 351.377 150.352 351.184 134.825 351.184C133.592 353.536 132.714 355.41 132.47 357.518C127.895 362.842 127.895 362.842 117.403 362.461C114.35 361.519 112.805 358.235 109.619 357.491C109.366 355.493 110.322 353.251 108.042 351.138H43.3076C42.7421 348.157 42.3007 345.166 43.6847 342.272L44.7606 341.606L47.3814 341.05C55.8344 341.487 64.3043 341.487 72.7573 341.05C85.5257 341.11 98.2941 341.808 111.049 340.701C113.155 339.727 114.511 337.486 116.994 337.155C117.826 342.433 116.405 347.853 117.697 352.801C118.92 353.747 119.946 353.623 120.98 353.458C122.194 353.586 123.463 353.917 124.838 352.125V337.247C127.808 337.371 129.132 340.426 131.105 340.995H166.789C177.01 341.404 187.232 341.528 197.453 340.945C199.536 342.612 198.86 345.148 199.457 347.284Z" fill="#166BB3"/>
<path id="Vector_227" d="M167.649 316.245C167.479 320.572 165.272 323.829 162.297 326.755C160.518 328.51 158.076 329.971 158.876 333.531C159.722 335.451 162.674 336.746 162.067 339.819H130.429C128.682 339.314 127.509 336.604 124.875 336.489L124.921 319.58C126.562 319.58 127.371 318.707 127.22 317.145C126.525 310.149 128.852 304.086 132.843 298.509L138.121 297.843L142.563 299.409C144.549 303.87 144.558 308.215 142.563 312.777C141.542 315.074 140.08 318.11 143.905 319.777C145.905 320.646 148.007 324.169 149.795 319.552C150.715 318.67 151.841 317.912 152.554 316.883C155.639 312.487 159.649 310.714 164.688 312.01C166.412 313.131 166.821 314.83 167.649 316.245Z" fill="#B9CC3C"/>
<path id="Vector_228" d="M48.3286 357.491L61.7269 421.695H181.999L196 357.491H48.3286Z" fill="#2884C4"/>
<path id="Vector_229" d="M79.8058 370.826C79.8058 368.89 78.2352 367.321 76.2976 367.321C74.3601 367.321 72.7894 368.89 72.7894 370.826V410.427C72.7894 412.363 74.3601 413.932 76.2976 413.932C78.2352 413.932 79.8058 412.363 79.8058 410.427V370.826Z" fill="#2360AD"/>
<path id="Vector_230" d="M90.7443 370.725C90.7443 368.789 89.1736 367.22 87.2361 367.22C85.2986 367.22 83.7279 368.789 83.7279 370.725V410.326C83.7279 412.262 85.2986 413.831 87.2361 413.831C89.1736 413.831 90.7443 412.262 90.7443 410.326V370.725Z" fill="#2360AD"/>
<path id="Vector_231" d="M102.138 370.826C102.138 368.89 100.567 367.321 98.6297 367.321C96.6921 367.321 95.1215 368.89 95.1215 370.826V410.427C95.1215 412.363 96.6921 413.932 98.6297 413.932C100.567 413.932 102.138 412.363 102.138 410.427V370.826Z" fill="#2360AD"/>
<path id="Vector_232" d="M113.122 370.661C113.122 368.725 111.552 367.156 109.614 367.156C107.677 367.156 106.106 368.725 106.106 370.661V410.262C106.106 412.198 107.677 413.767 109.614 413.767C111.552 413.767 113.122 412.198 113.122 410.262V370.661Z" fill="#2360AD"/>
<path id="Vector_233" d="M123.767 370.661C123.767 368.725 122.196 367.156 120.258 367.156C118.321 367.156 116.75 368.725 116.75 370.661V410.262C116.75 412.198 118.321 413.767 120.258 413.767C122.196 413.767 123.767 412.198 123.767 410.262V370.661Z" fill="#2360AD"/>
<path id="Vector_234" d="M134.802 370.661C134.802 368.725 133.231 367.156 131.293 367.156C129.356 367.156 127.785 368.725 127.785 370.661V410.262C127.785 412.198 129.356 413.767 131.293 413.767C133.231 413.767 134.802 412.198 134.802 410.262V370.661Z" fill="#2360AD"/>
<path id="Vector_235" d="M146.26 370.661C146.26 368.725 144.689 367.156 142.751 367.156C140.814 367.156 139.243 368.725 139.243 370.661V410.262C139.243 412.198 140.814 413.767 142.751 413.767C144.689 413.767 146.26 412.198 146.26 410.262V370.661Z" fill="#2360AD"/>
<path id="Vector_236" d="M158.21 370.661C158.21 368.725 156.639 367.156 154.701 367.156C152.764 367.156 151.193 368.725 151.193 370.661V410.262C151.193 412.198 152.764 413.767 154.701 413.767C156.639 413.767 158.21 412.198 158.21 410.262V370.661Z" fill="#2360AD"/>
<path id="Vector_237" d="M169.038 370.661C169.038 368.725 167.467 367.156 165.529 367.156C163.592 367.156 162.021 368.725 162.021 370.661V410.262C162.021 412.198 163.592 413.767 165.529 413.767C167.467 413.767 169.038 412.198 169.038 410.262V370.661Z" fill="#2360AD"/>
<path id="Vector_238" d="M49.9333 357.583L42.7008 357.514C42.1178 357.508 41.5607 357.272 41.1501 356.859C40.7396 356.445 40.5087 355.887 40.5076 355.304V343.278C40.5076 342.987 40.5651 342.699 40.6768 342.43C40.7885 342.162 40.9522 341.918 41.1586 341.713C41.3649 341.507 41.6098 341.345 41.8792 341.234C42.1486 341.124 42.4372 341.067 42.7284 341.069H48.1309L108.823 340.706C109.115 340.704 109.404 340.76 109.674 340.87C109.944 340.98 110.189 341.143 110.396 341.348C110.603 341.553 110.767 341.798 110.879 342.067C110.991 342.336 111.049 342.624 111.049 342.915V355.267C111.049 355.853 110.816 356.415 110.401 356.83C109.986 357.244 109.424 357.477 108.837 357.477L49.9333 357.583Z" fill="#166BB3"/>
<path id="Vector_239" d="M140.388 357.583L133.155 357.514C132.573 357.508 132.015 357.272 131.605 356.859C131.194 356.445 130.963 355.887 130.962 355.304V343.278C130.962 342.987 131.02 342.699 131.132 342.43C131.243 342.162 131.407 341.918 131.613 341.713C131.82 341.507 132.065 341.345 132.334 341.234C132.603 341.124 132.892 341.067 133.183 341.069H138.586L199.278 340.706C199.57 340.704 199.859 340.76 200.129 340.87C200.399 340.98 200.644 341.143 200.851 341.348C201.058 341.553 201.222 341.798 201.334 342.067C201.446 342.336 201.504 342.624 201.504 342.915V355.267C201.504 355.853 201.271 356.415 200.856 356.83C200.441 357.244 199.878 357.477 199.292 357.477L140.388 357.583Z" fill="#166BB3"/>
<path id="Vector_240" d="M40.5076 349.167H116.502V357.505H42.8709C42.8709 357.505 40.5076 357.468 40.5076 355.139V349.167Z" fill="#2360AD"/>
<path id="Vector_241" d="M199.168 349.153H127.716C126.426 349.153 125.38 350.198 125.38 351.487V355.157C125.38 356.446 126.426 357.491 127.716 357.491H199.168C200.458 357.491 201.503 356.446 201.503 355.157V351.487C201.503 350.198 200.458 349.153 199.168 349.153Z" fill="#2360AD"/>
<path id="Vector_242" d="M128.581 349.153H125.38V357.491H128.581V349.153Z" fill="#2360AD"/>
<path id="Vector_243" d="M123.854 288.463H118.028C117.185 288.463 116.502 289.146 116.502 289.988V352.833C116.502 353.675 117.185 354.358 118.028 354.358H123.854C124.697 354.358 125.38 353.675 125.38 352.833V289.988C125.38 289.146 124.697 288.463 123.854 288.463Z" fill="#36394D"/>
<path id="Vector_244" d="M120.507 288.463H118.028C117.185 288.463 116.502 289.146 116.502 289.988V352.833C116.502 353.675 117.185 354.358 118.028 354.358H120.507C121.35 354.358 122.033 353.675 122.033 352.833V289.988C122.033 289.146 121.35 288.463 120.507 288.463Z" fill="#303032"/>
</g>
</g>
<g id="owner-hand_2">
<path id="Vector_245" d="M307.315 236.326C306.235 236 287.673 245.012 287.204 244.773C286.735 244.535 286.556 244.121 288.046 243.395C290.17 242.334 301.54 236.009 305.858 233.602C306.058 233.491 306.22 233.322 306.324 233.119C306.428 232.915 306.469 232.685 306.441 232.458C306.414 232.232 306.32 232.018 306.171 231.844C306.023 231.671 305.825 231.546 305.605 231.484C303.927 231.025 285.875 239.895 284.367 240.832C284.257 240.901 284.125 240.925 283.998 240.899C283.871 240.874 283.759 240.8 283.684 240.694C283.61 240.588 283.579 240.457 283.598 240.329C283.618 240.201 283.685 240.085 283.788 240.005C284.101 239.786 284.437 239.601 284.79 239.454C286.832 238.535 296.851 232.21 300.658 229.808C300.876 229.67 301.054 229.477 301.172 229.247C301.29 229.018 301.344 228.761 301.329 228.503C301.314 228.246 301.23 227.997 301.086 227.783C300.942 227.569 300.743 227.397 300.51 227.286C299.012 226.601 279.778 238.356 281.199 235.554C281.572 234.819 282.68 232.798 284.243 231.879C286.298 230.69 287.462 227.502 285.434 226.799C282.008 225.6 266.063 240.759 263.203 243.083C259.097 246.395 217.914 261.278 213.706 262.087C213.591 262.11 213.458 262.142 213.32 262.183C210.952 264.117 208.543 266.028 206.984 268.614C204.874 272.078 203.609 276.143 202.934 280.126C202.368 283.433 201.094 287.076 203.426 289.556C204.681 290.884 206.929 291.853 208.874 292.487C209.119 292.595 209.39 292.634 209.656 292.602C210.874 292.34 212.516 291.522 213.757 291.123C213.819 291.104 213.879 291.08 213.936 291.049L214.856 290.59L214.952 290.548C232.346 283.332 249.759 271.793 257.635 266.942C257.675 266.913 257.716 266.887 257.759 266.864C265.313 263.295 273.061 257.617 275.323 257.847C281.466 258.467 284.666 257.658 286.625 257.475C287.204 257.421 287.763 257.234 288.257 256.928C290.933 255.293 299.752 249.647 300.423 248.499C302.032 245.743 294.795 249.17 293.673 249.712C293.572 249.762 287.429 250.598 295.48 245.812C301.756 242.017 311.757 237.667 307.315 236.326Z" fill="#F7B38F"/>
</g>
<g id="customer-mouth">
<path id="Vector_246" d="M122.374 164.565H144.604C144.604 164.565 134.848 180.477 122.374 164.565Z" fill="#FDFDFD"/>
</g>
<g id="owner-eyebrows_2">
<path id="Vector_247" d="M112.033 137.311C112.033 137.311 116.198 128.937 124.797 133.26" stroke="#855843" stroke-miterlimit="10"/>
<path id="Vector_248" d="M146.618 132.401C146.618 132.401 150.784 124.027 159.387 128.349" stroke="#855843" stroke-miterlimit="10"/>
</g>
<g id="customer-credit-card">
<g id="credit card">
<path id="Vector_249" d="M290.073 223.751L273.719 247.05C273.211 247.775 273.386 248.775 274.112 249.283L288.643 259.464C289.369 259.972 290.369 259.797 290.878 259.072L307.232 235.772C307.741 235.047 307.565 234.048 306.84 233.539L292.309 223.359C291.583 222.851 290.582 223.026 290.073 223.751Z" fill="#A3E6FF"/>
<path id="Vector_250" d="M295.905 225.878L277.708 251.803L281.378 254.374L299.575 228.45L295.905 225.878Z" fill="#00032D"/>
</g>
</g>
</g>
<defs>
<clipPath id="clip0">
<rect width="698" height="702" fill="white"/>
</clipPath>
</defs>
</svg>
